<svg width="160" height="28" viewBox="0 0 160 28" fill="none" xmlns="http://www.w3.org/2000/svg">
<path d="M4 8V4H12V8H4ZM4 20H0V8H4V20ZM12 12V8H16V12H12ZM16 20H12V16H16V20ZM12 20V24H4V20H12ZM24 24H20V8H28V12H24V24ZM36 20H32V8H36V20ZM44 20H40V8H44V20ZM40 20V24H36V20H40ZM32 28V24H36V28H32ZM56 20V24H52V28H48V8H56V12H52V20H56ZM60 20H56V12H60V20ZM68 20H64V4H68V8H72V12H68V20ZM68 24V20H72V24H68ZM80 12V8H84V12H80ZM80 20H76V12H80V20ZM88 20H84V12H88V20ZM84 20V24H80V20H84ZM96 20H104V24H92V4H104V8H96V20ZM108 20H104V8H108V20ZM112 4V0H116V4H112ZM116 24H112V8H116V24ZM124 20H120V8H124V20ZM132 20H128V8H132V20ZM128 20V24H124V20H128ZM120 28V24H124V28H120ZM140 24V20H136V12H140V20H144V12H140V8H148V24H140ZM156 24H152V8H160V12H156V24Z" fill="white"/>
</svg>
