<svg width="80" height="80" viewBox="0 0 80 80" fill="none" xmlns="http://www.w3.org/2000/svg">
<circle cx="20.9715" cy="1.94391" r="1.56672" fill="#1E1E1E" fill-opacity="0.25"/>
<circle cx="30.4854" cy="1.94391" r="1.56672" fill="#1E1E1E" fill-opacity="0.25"/>
<circle cx="39.9992" cy="1.94391" r="1.56672" fill="#1E1E1E" fill-opacity="0.25"/>
<circle cx="49.5131" cy="1.94391" r="1.56672" fill="#1E1E1E" fill-opacity="0.25"/>
<circle cx="59.0268" cy="1.94391" r="1.56672" fill="#1E1E1E" fill-opacity="0.25"/>
<circle cx="11.4578" cy="11.4578" r="1.56672" fill="#1E1E1E" fill-opacity="0.25"/>
<circle cx="20.9715" cy="11.4578" r="1.56672" fill="#1E1E1E" fill-opacity="0.25"/>
<circle cx="30.4854" cy="11.4578" r="1.56672" fill="#1E1E1E" fill-opacity="0.25"/>
<circle cx="39.9992" cy="11.4578" r="1.56672" fill="#1E1E1E" fill-opacity="0.25"/>
<circle cx="49.5131" cy="11.4578" r="1.56672" fill="#1E1E1E" fill-opacity="0.25"/>
<circle cx="59.0268" cy="11.4578" r="1.56672" fill="#1E1E1E" fill-opacity="0.25"/>
<circle cx="68.5406" cy="11.4578" r="1.56672" fill="#1E1E1E" fill-opacity="0.25"/>
<circle cx="1.94404" cy="20.9715" r="1.56672" fill="#1E1E1E" fill-opacity="0.25"/>
<circle cx="11.4578" cy="20.9715" r="1.56672" fill="#1E1E1E" fill-opacity="0.25"/>
<circle cx="20.9715" cy="20.9715" r="1.56672" fill="#1E1E1E" fill-opacity="0.25"/>
<circle cx="30.4854" cy="20.9715" r="1.56672" fill="#1E1E1E" fill-opacity="0.25"/>
<circle cx="39.9992" cy="20.9715" r="1.56672" fill="#1E1E1E" fill-opacity="0.25"/>
<circle cx="49.5131" cy="20.9715" r="1.56672" fill="#1E1E1E" fill-opacity="0.25"/>
<circle cx="59.0268" cy="20.9715" r="1.56672" fill="#1E1E1E" fill-opacity="0.25"/>
<circle cx="68.5406" cy="20.9715" r="1.56672" fill="#1E1E1E" fill-opacity="0.25"/>
<circle cx="78.0545" cy="20.9715" r="1.56672" fill="#1E1E1E" fill-opacity="0.25"/>
<circle cx="1.94404" cy="30.4854" r="1.56672" fill="#1E1E1E" fill-opacity="0.25"/>
<circle cx="11.4578" cy="30.4854" r="1.56672" fill="#1E1E1E" fill-opacity="0.25"/>
<circle cx="20.9715" cy="30.4854" r="1.56672" fill="#1E1E1E" fill-opacity="0.25"/>
<circle cx="30.4854" cy="30.4854" r="1.56672" fill="#1E1E1E" fill-opacity="0.25"/>
<circle cx="39.9992" cy="30.4854" r="1.56672" fill="#1E1E1E" fill-opacity="0.25"/>
<circle cx="49.5131" cy="30.4854" r="1.56672" fill="#1E1E1E" fill-opacity="0.25"/>
<circle cx="59.0268" cy="30.4854" r="1.56672" fill="#1E1E1E" fill-opacity="0.25"/>
<circle cx="68.5406" cy="30.4854" r="1.56672" fill="#1E1E1E" fill-opacity="0.25"/>
<circle cx="78.0545" cy="30.4854" r="1.56672" fill="#1E1E1E" fill-opacity="0.25"/>
<circle cx="1.94404" cy="39.9991" r="1.56672" fill="#1E1E1E" fill-opacity="0.25"/>
<circle cx="11.4578" cy="39.9991" r="1.56672" fill="#1E1E1E" fill-opacity="0.25"/>
<circle cx="20.9715" cy="39.9991" r="1.56672" fill="#1E1E1E" fill-opacity="0.25"/>
<circle cx="30.4854" cy="39.9991" r="1.56672" fill="#1E1E1E" fill-opacity="0.25"/>
<circle cx="39.9992" cy="39.9991" r="1.56672" fill="#1E1E1E" fill-opacity="0.25"/>
<circle cx="49.5131" cy="39.9991" r="1.56672" fill="#1E1E1E" fill-opacity="0.25"/>
<circle cx="59.0268" cy="39.9991" r="1.56672" fill="#1E1E1E" fill-opacity="0.25"/>
<circle cx="68.5406" cy="39.9991" r="1.56672" fill="#1E1E1E" fill-opacity="0.25"/>
<circle cx="78.0545" cy="39.9991" r="1.56672" fill="#1E1E1E" fill-opacity="0.25"/>
<circle cx="1.94404" cy="49.513" r="1.56672" fill="#1E1E1E" fill-opacity="0.25"/>
<circle cx="11.4578" cy="49.513" r="1.56672" fill="#1E1E1E" fill-opacity="0.25"/>
<circle cx="20.9715" cy="49.513" r="1.56672" fill="#1E1E1E" fill-opacity="0.25"/>
<circle cx="30.4854" cy="49.513" r="1.56672" fill="#1E1E1E" fill-opacity="0.25"/>
<circle cx="39.9992" cy="49.513" r="1.56672" fill="#1E1E1E" fill-opacity="0.25"/>
<circle cx="49.5131" cy="49.513" r="1.56672" fill="#1E1E1E" fill-opacity="0.25"/>
<circle cx="59.0268" cy="49.513" r="1.56672" fill="#1E1E1E" fill-opacity="0.25"/>
<circle cx="68.5406" cy="49.513" r="1.56672" fill="#1E1E1E" fill-opacity="0.25"/>
<circle cx="78.0545" cy="49.513" r="1.56672" fill="#1E1E1E" fill-opacity="0.25"/>
<circle cx="1.94404" cy="59.0267" r="1.56672" fill="#1E1E1E" fill-opacity="0.25"/>
<circle cx="11.4578" cy="59.0267" r="1.56672" fill="#1E1E1E" fill-opacity="0.25"/>
<circle cx="20.9715" cy="59.0267" r="1.56672" fill="#1E1E1E" fill-opacity="0.25"/>
<circle cx="30.4854" cy="59.0267" r="1.56672" fill="#1E1E1E" fill-opacity="0.25"/>
<circle cx="39.9992" cy="59.0267" r="1.56672" fill="#1E1E1E" fill-opacity="0.25"/>
<circle cx="49.5131" cy="59.0267" r="1.56672" fill="#1E1E1E" fill-opacity="0.25"/>
<circle cx="59.0268" cy="59.0267" r="1.56672" fill="#1E1E1E" fill-opacity="0.25"/>
<circle cx="68.5406" cy="59.0267" r="1.56672" fill="#1E1E1E" fill-opacity="0.25"/>
<circle cx="78.0545" cy="59.0267" r="1.56672" fill="#1E1E1E" fill-opacity="0.25"/>
<circle cx="11.4578" cy="68.5406" r="1.56672" fill="#1E1E1E" fill-opacity="0.25"/>
<circle cx="20.9715" cy="68.5406" r="1.56672" fill="#1E1E1E" fill-opacity="0.25"/>
<circle cx="30.4854" cy="68.5406" r="1.56672" fill="#1E1E1E" fill-opacity="0.25"/>
<circle cx="39.9992" cy="68.5406" r="1.56672" fill="#1E1E1E" fill-opacity="0.25"/>
<circle cx="49.5131" cy="68.5406" r="1.56672" fill="#1E1E1E" fill-opacity="0.25"/>
<circle cx="59.0268" cy="68.5406" r="1.56672" fill="#1E1E1E" fill-opacity="0.25"/>
<circle cx="68.5406" cy="68.5406" r="1.56672" fill="#1E1E1E" fill-opacity="0.25"/>
<circle cx="20.9715" cy="78.0543" r="1.56672" fill="#1E1E1E" fill-opacity="0.25"/>
<circle cx="30.4854" cy="78.0543" r="1.56672" fill="#1E1E1E" fill-opacity="0.25"/>
<circle cx="39.9992" cy="78.0543" r="1.56672" fill="#1E1E1E" fill-opacity="0.25"/>
<circle cx="49.5131" cy="78.0543" r="1.56672" fill="#1E1E1E" fill-opacity="0.25"/>
<circle cx="59.0268" cy="78.0543" r="1.56672" fill="#1E1E1E" fill-opacity="0.25"/>
<circle cx="49.754" cy="30.9386" r="2.45399" fill="#860CFF"/>
<circle cx="49.754" cy="50.454" r="2.45399" fill="#860CFF"/>
<circle cx="49.754" cy="60.454" r="2.45399" fill="#860CFF"/>
<circle cx="49.754" cy="69.454" r="2.45399" fill="#860CFF"/>
<circle cx="49.754" cy="21.454" r="2.45399" fill="#860CFF"/>
<rect x="17.9939" y="28" width="4.90798" height="4.90798" rx="0.490798" fill="#860CFF"/>
<rect x="47.3" y="38" width="4.90798" height="4.90798" rx="0.490798" fill="#860CFF"/>
<circle cx="30.454" cy="21.454" r="2.45399" fill="#860CFF"/>
<circle cx="40.0798" cy="11.1227" r="2.45399" fill="#860CFF"/>
<circle cx="49.754" cy="11.1227" r="2.45399" fill="#860CFF"/>
</svg>
