<svg width="80" height="83" viewBox="0 0 80 83" fill="none" xmlns="http://www.w3.org/2000/svg">
<circle cx="20.9716" cy="2.94391" r="1.56672" fill="#1E1E1E" fill-opacity="0.25"/>
<circle cx="30.4854" cy="2.94391" r="1.56672" fill="#1E1E1E" fill-opacity="0.25"/>
<circle cx="39.9992" cy="2.94391" r="1.56672" fill="#1E1E1E" fill-opacity="0.25"/>
<circle cx="49.5131" cy="2.94391" r="1.56672" fill="#1E1E1E" fill-opacity="0.25"/>
<circle cx="59.0268" cy="2.94391" r="1.56672" fill="#1E1E1E" fill-opacity="0.25"/>
<circle cx="11.4578" cy="12.4578" r="1.56672" fill="#1E1E1E" fill-opacity="0.25"/>
<circle cx="20.9716" cy="12.4578" r="1.56672" fill="#1E1E1E" fill-opacity="0.25"/>
<circle cx="30.4854" cy="12.4578" r="1.56672" fill="#1E1E1E" fill-opacity="0.25"/>
<circle cx="39.9992" cy="12.4578" r="1.56672" fill="#1E1E1E" fill-opacity="0.25"/>
<circle cx="49.5131" cy="12.4578" r="1.56672" fill="#1E1E1E" fill-opacity="0.25"/>
<circle cx="59.0268" cy="12.4578" r="1.56672" fill="#1E1E1E" fill-opacity="0.25"/>
<circle cx="68.5406" cy="12.4578" r="1.56672" fill="#1E1E1E" fill-opacity="0.25"/>
<circle cx="1.94403" cy="21.9715" r="1.56672" fill="#1E1E1E" fill-opacity="0.25"/>
<circle cx="11.4578" cy="21.9715" r="1.56672" fill="#1E1E1E" fill-opacity="0.25"/>
<circle cx="20.9716" cy="21.9715" r="1.56672" fill="#1E1E1E" fill-opacity="0.25"/>
<circle cx="30.4854" cy="21.9715" r="1.56672" fill="#1E1E1E" fill-opacity="0.25"/>
<circle cx="39.9992" cy="21.9715" r="1.56672" fill="#1E1E1E" fill-opacity="0.25"/>
<circle cx="49.5131" cy="21.9715" r="1.56672" fill="#1E1E1E" fill-opacity="0.25"/>
<circle cx="59.0268" cy="21.9715" r="1.56672" fill="#1E1E1E" fill-opacity="0.25"/>
<circle cx="68.5406" cy="21.9715" r="1.56672" fill="#1E1E1E" fill-opacity="0.25"/>
<circle cx="78.0545" cy="21.9715" r="1.56672" fill="#1E1E1E" fill-opacity="0.25"/>
<circle cx="1.94403" cy="31.4854" r="1.56672" fill="#1E1E1E" fill-opacity="0.25"/>
<circle cx="11.4578" cy="31.4854" r="1.56672" fill="#1E1E1E" fill-opacity="0.25"/>
<circle cx="20.9716" cy="31.4854" r="1.56672" fill="#1E1E1E" fill-opacity="0.25"/>
<circle cx="30.4854" cy="31.4854" r="1.56672" fill="#1E1E1E" fill-opacity="0.25"/>
<circle cx="39.9992" cy="31.4854" r="1.56672" fill="#1E1E1E" fill-opacity="0.25"/>
<circle cx="49.5131" cy="31.4854" r="1.56672" fill="#1E1E1E" fill-opacity="0.25"/>
<circle cx="59.0268" cy="31.4854" r="1.56672" fill="#1E1E1E" fill-opacity="0.25"/>
<circle cx="68.5406" cy="31.4854" r="1.56672" fill="#1E1E1E" fill-opacity="0.25"/>
<circle cx="78.0545" cy="31.4854" r="1.56672" fill="#1E1E1E" fill-opacity="0.25"/>
<circle cx="1.94403" cy="40.9991" r="1.56672" fill="#1E1E1E" fill-opacity="0.25"/>
<circle cx="11.4578" cy="40.9991" r="1.56672" fill="#1E1E1E" fill-opacity="0.25"/>
<circle cx="20.9716" cy="40.9991" r="1.56672" fill="#1E1E1E" fill-opacity="0.25"/>
<circle cx="30.4854" cy="40.9991" r="1.56672" fill="#1E1E1E" fill-opacity="0.25"/>
<circle cx="39.9992" cy="40.9991" r="1.56672" fill="#1E1E1E" fill-opacity="0.25"/>
<circle cx="49.5131" cy="40.9991" r="1.56672" fill="#1E1E1E" fill-opacity="0.25"/>
<circle cx="59.0268" cy="40.9991" r="1.56672" fill="#1E1E1E" fill-opacity="0.25"/>
<circle cx="68.5406" cy="40.9991" r="1.56672" fill="#1E1E1E" fill-opacity="0.25"/>
<circle cx="78.0545" cy="40.9991" r="1.56672" fill="#1E1E1E" fill-opacity="0.25"/>
<circle cx="1.94403" cy="50.513" r="1.56672" fill="#1E1E1E" fill-opacity="0.25"/>
<circle cx="11.4578" cy="50.513" r="1.56672" fill="#1E1E1E" fill-opacity="0.25"/>
<circle cx="20.9716" cy="50.513" r="1.56672" fill="#1E1E1E" fill-opacity="0.25"/>
<circle cx="30.4854" cy="50.513" r="1.56672" fill="#1E1E1E" fill-opacity="0.25"/>
<circle cx="39.9992" cy="50.513" r="1.56672" fill="#1E1E1E" fill-opacity="0.25"/>
<circle cx="49.5131" cy="50.513" r="1.56672" fill="#1E1E1E" fill-opacity="0.25"/>
<circle cx="59.0268" cy="50.513" r="1.56672" fill="#1E1E1E" fill-opacity="0.25"/>
<circle cx="68.5406" cy="50.513" r="1.56672" fill="#1E1E1E" fill-opacity="0.25"/>
<circle cx="78.0545" cy="50.513" r="1.56672" fill="#1E1E1E" fill-opacity="0.25"/>
<circle cx="1.94403" cy="60.0267" r="1.56672" fill="#1E1E1E" fill-opacity="0.25"/>
<circle cx="11.4578" cy="60.0267" r="1.56672" fill="#1E1E1E" fill-opacity="0.25"/>
<circle cx="20.9716" cy="60.0267" r="1.56672" fill="#1E1E1E" fill-opacity="0.25"/>
<circle cx="30.4854" cy="60.0267" r="1.56672" fill="#1E1E1E" fill-opacity="0.25"/>
<circle cx="39.9992" cy="60.0267" r="1.56672" fill="#1E1E1E" fill-opacity="0.25"/>
<circle cx="49.5131" cy="60.0267" r="1.56672" fill="#1E1E1E" fill-opacity="0.25"/>
<circle cx="59.0268" cy="60.0267" r="1.56672" fill="#1E1E1E" fill-opacity="0.25"/>
<circle cx="68.5406" cy="60.0267" r="1.56672" fill="#1E1E1E" fill-opacity="0.25"/>
<circle cx="78.0545" cy="60.0267" r="1.56672" fill="#1E1E1E" fill-opacity="0.25"/>
<circle cx="11.4578" cy="69.5406" r="1.56672" fill="#1E1E1E" fill-opacity="0.25"/>
<circle cx="20.9716" cy="69.5406" r="1.56672" fill="#1E1E1E" fill-opacity="0.25"/>
<circle cx="30.4854" cy="69.5406" r="1.56672" fill="#1E1E1E" fill-opacity="0.25"/>
<circle cx="39.9992" cy="69.5406" r="1.56672" fill="#1E1E1E" fill-opacity="0.25"/>
<circle cx="49.5131" cy="69.5406" r="1.56672" fill="#1E1E1E" fill-opacity="0.25"/>
<circle cx="59.0268" cy="69.5406" r="1.56672" fill="#1E1E1E" fill-opacity="0.25"/>
<circle cx="68.5406" cy="69.5406" r="1.56672" fill="#1E1E1E" fill-opacity="0.25"/>
<circle cx="20.9716" cy="79.0543" r="1.56672" fill="#1E1E1E" fill-opacity="0.25"/>
<circle cx="30.4854" cy="79.0543" r="1.56672" fill="#1E1E1E" fill-opacity="0.25"/>
<circle cx="39.9992" cy="79.0543" r="1.56672" fill="#1E1E1E" fill-opacity="0.25"/>
<circle cx="49.5131" cy="79.0543" r="1.56672" fill="#1E1E1E" fill-opacity="0.25"/>
<circle cx="59.0268" cy="79.0543" r="1.56672" fill="#1E1E1E" fill-opacity="0.25"/>
<rect width="4.85207" height="4.85207" rx="0.485207" transform="matrix(-1 0 0 1 51.8521 39)" fill="#860CFF"/>
<circle cx="2.42604" cy="2.42604" r="2.42604" transform="matrix(-1 0 0 1 32.743 39)" fill="#860CFF"/>
<circle cx="2.42604" cy="2.42604" r="2.42604" transform="matrix(-1 0 0 1 41.8521 39)" fill="#860CFF"/>
<circle cx="2.42604" cy="2.42604" r="2.42604" transform="matrix(-1 0 0 1 61.8521 29.6187)" fill="#860CFF"/>
<circle cx="59.426" cy="50.426" r="2.42604" transform="rotate(180 59.426 50.426)" fill="#860CFF"/>
<circle cx="2.42604" cy="2.42604" r="2.42604" transform="matrix(-1 0 0 1 23.2816 19.9146)" fill="#860CFF"/>
<circle cx="20.8555" cy="60.1301" r="2.42604" transform="rotate(180 20.8555 60.1301)" fill="#860CFF"/>
<rect width="4.85207" height="4.85207" rx="0.485207" transform="matrix(-1 0 0 1 52.394 10.2104)" fill="#860CFF"/>
<rect x="52.394" y="72.2603" width="4.85207" height="4.85207" rx="0.485207" transform="rotate(180 52.394 72.2603)" fill="#860CFF"/>
<circle cx="2.42604" cy="2.42604" r="2.42604" transform="matrix(-1 0 0 1 42.6898 10.2104)" fill="#860CFF"/>
<circle cx="40.2638" cy="69.8342" r="2.42604" transform="rotate(180 40.2638 69.8342)" fill="#860CFF"/>
<circle cx="2.42604" cy="2.42604" r="2.42604" transform="matrix(-1 0 0 1 32.9857 10.2104)" fill="#860CFF"/>
<circle cx="30.5596" cy="69.8342" r="2.42604" transform="rotate(180 30.5596 69.8342)" fill="#860CFF"/>
<circle cx="2.42604" cy="2.42604" r="2.42604" transform="matrix(-1 0 0 1 62.0981 19.9146)" fill="#860CFF"/>
<circle cx="59.672" cy="60.1301" r="2.42604" transform="rotate(180 59.672 60.1301)" fill="#860CFF"/>
</svg>
