<svg width="239" height="239" viewBox="0 0 239 239" fill="none" xmlns="http://www.w3.org/2000/svg">
<circle cx="41.961" cy="3.19218" r="3.19218" fill="white" fill-opacity="0.25"/>
<circle cx="61.3453" cy="3.19218" r="3.19218" fill="white" fill-opacity="0.25"/>
<circle cx="80.7295" cy="3.19218" r="3.19218" fill="white" fill-opacity="0.25"/>
<circle cx="100.114" cy="3.19218" r="3.19218" fill="white" fill-opacity="0.25"/>
<circle cx="119.498" cy="3.19218" r="3.19218" fill="white" fill-opacity="0.25"/>
<circle cx="138.883" cy="3.19218" r="3.19218" fill="white" fill-opacity="0.25"/>
<circle cx="158.267" cy="3.19218" r="3.19218" fill="white" fill-opacity="0.25"/>
<circle cx="177.651" cy="3.19218" r="3.19218" fill="white" fill-opacity="0.25"/>
<circle cx="197.036" cy="3.19218" r="3.19218" fill="white" fill-opacity="0.25"/>
<circle cx="22.5765" cy="22.5766" r="3.19218" fill="white" fill-opacity="0.25"/>
<circle cx="41.961" cy="22.5766" r="3.19218" fill="white" fill-opacity="0.25"/>
<circle cx="61.3453" cy="22.5766" r="3.19218" fill="white" fill-opacity="0.25"/>
<circle cx="80.7295" cy="22.5766" r="3.19218" fill="white" fill-opacity="0.25"/>
<circle cx="100.114" cy="22.5766" r="3.19218" fill="white" fill-opacity="0.25"/>
<circle cx="119.498" cy="22.5766" r="3.19218" fill="white" fill-opacity="0.25"/>
<circle cx="138.883" cy="22.5766" r="3.19218" fill="white" fill-opacity="0.25"/>
<circle cx="158.267" cy="22.5766" r="3.19218" fill="white" fill-opacity="0.25"/>
<circle cx="177.651" cy="22.5766" r="3.19218" fill="white" fill-opacity="0.25"/>
<circle cx="197.036" cy="22.5766" r="3.19218" fill="white" fill-opacity="0.25"/>
<circle cx="216.42" cy="22.5766" r="3.19218" fill="white" fill-opacity="0.25"/>
<circle cx="3.19218" cy="41.9609" r="3.19218" fill="white" fill-opacity="0.25"/>
<circle cx="22.5765" cy="41.9609" r="3.19218" fill="white" fill-opacity="0.25"/>
<circle cx="41.961" cy="41.9609" r="3.19218" fill="white" fill-opacity="0.25"/>
<circle cx="61.3453" cy="41.9609" r="3.19218" fill="white" fill-opacity="0.25"/>
<circle cx="80.7295" cy="41.9609" r="3.19218" fill="white" fill-opacity="0.25"/>
<circle cx="100.114" cy="41.9609" r="3.19218" fill="white" fill-opacity="0.25"/>
<circle cx="119.498" cy="41.9609" r="3.19218" fill="white" fill-opacity="0.25"/>
<circle cx="138.883" cy="41.9609" r="3.19218" fill="white" fill-opacity="0.25"/>
<circle cx="158.267" cy="41.9609" r="3.19218" fill="white" fill-opacity="0.25"/>
<circle cx="177.651" cy="41.9609" r="3.19218" fill="white" fill-opacity="0.25"/>
<circle cx="197.036" cy="41.9609" r="3.19218" fill="white" fill-opacity="0.25"/>
<circle cx="216.42" cy="41.9609" r="3.19218" fill="white" fill-opacity="0.25"/>
<circle cx="235.804" cy="41.9609" r="3.19218" fill="white" fill-opacity="0.25"/>
<circle cx="3.19218" cy="61.3453" r="3.19218" fill="white" fill-opacity="0.25"/>
<circle cx="22.5765" cy="61.3453" r="3.19218" fill="white" fill-opacity="0.25"/>
<circle cx="41.961" cy="61.3453" r="3.19218" fill="white" fill-opacity="0.25"/>
<circle cx="61.3453" cy="61.3453" r="3.19218" fill="white" fill-opacity="0.25"/>
<circle cx="80.7295" cy="61.3453" r="3.19218" fill="white" fill-opacity="0.25"/>
<circle cx="100.114" cy="61.3453" r="3.19218" fill="white" fill-opacity="0.25"/>
<circle cx="119.498" cy="61.3453" r="3.19218" fill="white" fill-opacity="0.25"/>
<circle cx="138.883" cy="61.3453" r="3.19218" fill="white" fill-opacity="0.25"/>
<circle cx="158.267" cy="61.3453" r="3.19218" fill="white" fill-opacity="0.25"/>
<circle cx="177.651" cy="61.3453" r="3.19218" fill="white" fill-opacity="0.25"/>
<circle cx="197.036" cy="61.3453" r="3.19218" fill="white" fill-opacity="0.25"/>
<circle cx="216.42" cy="61.3453" r="3.19218" fill="white" fill-opacity="0.25"/>
<circle cx="235.804" cy="61.3453" r="3.19218" fill="white" fill-opacity="0.25"/>
<circle cx="3.19218" cy="80.7297" r="3.19218" fill="white" fill-opacity="0.25"/>
<circle cx="22.5765" cy="80.7297" r="3.19218" fill="white" fill-opacity="0.25"/>
<circle cx="41.961" cy="80.7297" r="3.19218" fill="white" fill-opacity="0.25"/>
<circle cx="61.3453" cy="80.7297" r="3.19218" fill="white" fill-opacity="0.25"/>
<circle cx="80.7295" cy="80.7297" r="3.19218" fill="white" fill-opacity="0.25"/>
<circle cx="100.114" cy="80.7297" r="3.19218" fill="white" fill-opacity="0.25"/>
<circle cx="119.498" cy="80.7297" r="3.19218" fill="white" fill-opacity="0.25"/>
<circle cx="138.883" cy="80.7297" r="3.19218" fill="white" fill-opacity="0.25"/>
<circle cx="158.267" cy="80.7297" r="3.19218" fill="white" fill-opacity="0.25"/>
<circle cx="177.651" cy="80.7297" r="3.19218" fill="white" fill-opacity="0.25"/>
<circle cx="197.036" cy="80.7297" r="3.19218" fill="white" fill-opacity="0.25"/>
<circle cx="216.42" cy="80.7297" r="3.19218" fill="white" fill-opacity="0.25"/>
<circle cx="235.804" cy="80.7297" r="3.19218" fill="white" fill-opacity="0.25"/>
<circle cx="3.19218" cy="100.114" r="3.19218" fill="white" fill-opacity="0.25"/>
<circle cx="22.5765" cy="100.114" r="3.19218" fill="white" fill-opacity="0.25"/>
<circle cx="41.961" cy="100.114" r="3.19218" fill="white" fill-opacity="0.25"/>
<circle cx="61.3453" cy="100.114" r="3.19218" fill="white" fill-opacity="0.25"/>
<circle cx="80.7295" cy="100.114" r="3.19218" fill="white" fill-opacity="0.25"/>
<circle cx="100.114" cy="100.114" r="3.19218" fill="white" fill-opacity="0.25"/>
<circle cx="119.498" cy="100.114" r="3.19218" fill="white" fill-opacity="0.25"/>
<circle cx="138.883" cy="100.114" r="3.19218" fill="white" fill-opacity="0.25"/>
<circle cx="158.267" cy="100.114" r="3.19218" fill="white" fill-opacity="0.25"/>
<circle cx="177.651" cy="100.114" r="3.19218" fill="white" fill-opacity="0.25"/>
<circle cx="197.036" cy="100.114" r="3.19218" fill="white" fill-opacity="0.25"/>
<circle cx="216.42" cy="100.114" r="3.19218" fill="white" fill-opacity="0.25"/>
<circle cx="235.804" cy="100.114" r="3.19218" fill="white" fill-opacity="0.25"/>
<circle cx="3.19218" cy="119.498" r="3.19218" fill="white" fill-opacity="0.25"/>
<circle cx="22.5765" cy="119.498" r="3.19218" fill="white" fill-opacity="0.25"/>
<circle cx="41.961" cy="119.498" r="3.19218" fill="white" fill-opacity="0.25"/>
<circle cx="61.3453" cy="119.498" r="3.19218" fill="white" fill-opacity="0.25"/>
<circle cx="80.7295" cy="119.498" r="3.19218" fill="white" fill-opacity="0.25"/>
<circle cx="100.114" cy="119.498" r="3.19218" fill="white" fill-opacity="0.25"/>
<circle cx="119.498" cy="119.498" r="3.19218" fill="white" fill-opacity="0.25"/>
<circle cx="138.883" cy="119.498" r="3.19218" fill="white" fill-opacity="0.25"/>
<circle cx="158.267" cy="119.498" r="3.19218" fill="white" fill-opacity="0.25"/>
<circle cx="177.651" cy="119.498" r="3.19218" fill="white" fill-opacity="0.25"/>
<circle cx="197.036" cy="119.498" r="3.19218" fill="white" fill-opacity="0.25"/>
<circle cx="216.42" cy="119.498" r="3.19218" fill="white" fill-opacity="0.25"/>
<circle cx="235.804" cy="119.498" r="3.19218" fill="white" fill-opacity="0.25"/>
<circle cx="3.19218" cy="138.883" r="3.19218" fill="white" fill-opacity="0.25"/>
<circle cx="22.5765" cy="138.883" r="3.19218" fill="white" fill-opacity="0.25"/>
<circle cx="41.961" cy="138.883" r="3.19218" fill="white" fill-opacity="0.25"/>
<circle cx="61.3453" cy="138.883" r="3.19218" fill="white" fill-opacity="0.25"/>
<circle cx="80.7295" cy="138.883" r="3.19218" fill="white" fill-opacity="0.25"/>
<circle cx="100.114" cy="138.883" r="3.19218" fill="white" fill-opacity="0.25"/>
<circle cx="119.498" cy="138.883" r="3.19218" fill="white" fill-opacity="0.25"/>
<circle cx="138.883" cy="138.883" r="3.19218" fill="white" fill-opacity="0.25"/>
<circle cx="158.267" cy="138.883" r="3.19218" fill="white" fill-opacity="0.25"/>
<circle cx="177.651" cy="138.883" r="3.19218" fill="white" fill-opacity="0.25"/>
<circle cx="197.036" cy="138.883" r="3.19218" fill="white" fill-opacity="0.25"/>
<circle cx="216.42" cy="138.883" r="3.19218" fill="white" fill-opacity="0.25"/>
<circle cx="235.804" cy="138.883" r="3.19218" fill="white" fill-opacity="0.25"/>
<circle cx="3.19218" cy="158.267" r="3.19218" fill="white" fill-opacity="0.25"/>
<circle cx="22.5765" cy="158.267" r="3.19218" fill="white" fill-opacity="0.25"/>
<circle cx="41.961" cy="158.267" r="3.19218" fill="white" fill-opacity="0.25"/>
<circle cx="61.3453" cy="158.267" r="3.19218" fill="white" fill-opacity="0.25"/>
<circle cx="80.7295" cy="158.267" r="3.19218" fill="white" fill-opacity="0.25"/>
<circle cx="100.114" cy="158.267" r="3.19218" fill="white" fill-opacity="0.25"/>
<circle cx="119.498" cy="158.267" r="3.19218" fill="white" fill-opacity="0.25"/>
<circle cx="138.883" cy="158.267" r="3.19218" fill="white" fill-opacity="0.25"/>
<circle cx="158.267" cy="158.267" r="3.19218" fill="white" fill-opacity="0.25"/>
<circle cx="177.651" cy="158.267" r="3.19218" fill="white" fill-opacity="0.25"/>
<circle cx="197.036" cy="158.267" r="3.19218" fill="white" fill-opacity="0.25"/>
<circle cx="216.42" cy="158.267" r="3.19218" fill="white" fill-opacity="0.25"/>
<circle cx="235.804" cy="158.267" r="3.19218" fill="white" fill-opacity="0.25"/>
<circle cx="3.19218" cy="177.651" r="3.19218" fill="white" fill-opacity="0.25"/>
<circle cx="22.5765" cy="177.651" r="3.19218" fill="white" fill-opacity="0.25"/>
<circle cx="41.961" cy="177.651" r="3.19218" fill="white" fill-opacity="0.25"/>
<circle cx="61.3453" cy="177.651" r="3.19218" fill="white" fill-opacity="0.25"/>
<circle cx="80.7295" cy="177.651" r="3.19218" fill="white" fill-opacity="0.25"/>
<circle cx="100.114" cy="177.651" r="3.19218" fill="white" fill-opacity="0.25"/>
<circle cx="119.498" cy="177.651" r="3.19218" fill="white" fill-opacity="0.25"/>
<circle cx="138.883" cy="177.651" r="3.19218" fill="white" fill-opacity="0.25"/>
<circle cx="158.267" cy="177.651" r="3.19218" fill="white" fill-opacity="0.25"/>
<circle cx="177.651" cy="177.651" r="3.19218" fill="white" fill-opacity="0.25"/>
<circle cx="197.036" cy="177.651" r="3.19218" fill="white" fill-opacity="0.25"/>
<circle cx="216.42" cy="177.651" r="3.19218" fill="white" fill-opacity="0.25"/>
<circle cx="235.804" cy="177.651" r="3.19218" fill="white" fill-opacity="0.25"/>
<circle cx="3.19218" cy="197.036" r="3.19218" fill="white" fill-opacity="0.25"/>
<circle cx="22.5765" cy="197.036" r="3.19218" fill="white" fill-opacity="0.25"/>
<circle cx="41.961" cy="197.036" r="3.19218" fill="white" fill-opacity="0.25"/>
<circle cx="61.3453" cy="197.036" r="3.19218" fill="white" fill-opacity="0.25"/>
<circle cx="80.7295" cy="197.036" r="3.19218" fill="white" fill-opacity="0.25"/>
<circle cx="100.114" cy="197.036" r="3.19218" fill="white" fill-opacity="0.25"/>
<circle cx="119.498" cy="197.036" r="3.19218" fill="white" fill-opacity="0.25"/>
<circle cx="138.883" cy="197.036" r="3.19218" fill="white" fill-opacity="0.25"/>
<circle cx="158.267" cy="197.036" r="3.19218" fill="white" fill-opacity="0.25"/>
<circle cx="177.651" cy="197.036" r="3.19218" fill="white" fill-opacity="0.25"/>
<circle cx="197.036" cy="197.036" r="3.19218" fill="white" fill-opacity="0.25"/>
<circle cx="216.42" cy="197.036" r="3.19218" fill="white" fill-opacity="0.25"/>
<circle cx="235.804" cy="197.036" r="3.19218" fill="white" fill-opacity="0.25"/>
<circle cx="22.5765" cy="216.42" r="3.19218" fill="white" fill-opacity="0.25"/>
<circle cx="41.961" cy="216.42" r="3.19218" fill="white" fill-opacity="0.25"/>
<circle cx="61.3453" cy="216.42" r="3.19218" fill="white" fill-opacity="0.25"/>
<circle cx="80.7295" cy="216.42" r="3.19218" fill="white" fill-opacity="0.25"/>
<circle cx="100.114" cy="216.42" r="3.19218" fill="white" fill-opacity="0.25"/>
<circle cx="119.498" cy="216.42" r="3.19218" fill="white" fill-opacity="0.25"/>
<circle cx="138.883" cy="216.42" r="3.19218" fill="white" fill-opacity="0.25"/>
<circle cx="158.267" cy="216.42" r="3.19218" fill="white" fill-opacity="0.25"/>
<circle cx="177.651" cy="216.42" r="3.19218" fill="white" fill-opacity="0.25"/>
<circle cx="197.036" cy="216.42" r="3.19218" fill="white" fill-opacity="0.25"/>
<circle cx="216.42" cy="216.42" r="3.19218" fill="white" fill-opacity="0.25"/>
<circle cx="41.961" cy="235.805" r="3.19218" fill="white" fill-opacity="0.25"/>
<circle cx="61.3453" cy="235.805" r="3.19218" fill="white" fill-opacity="0.25"/>
<circle cx="80.7295" cy="235.805" r="3.19218" fill="white" fill-opacity="0.25"/>
<circle cx="100.114" cy="235.805" r="3.19218" fill="white" fill-opacity="0.25"/>
<circle cx="119.498" cy="235.805" r="3.19218" fill="white" fill-opacity="0.25"/>
<circle cx="138.883" cy="235.805" r="3.19218" fill="white" fill-opacity="0.25"/>
<circle cx="158.267" cy="235.805" r="3.19218" fill="white" fill-opacity="0.25"/>
<circle cx="177.651" cy="235.805" r="3.19218" fill="white" fill-opacity="0.25"/>
<circle cx="197.036" cy="235.805" r="3.19218" fill="white" fill-opacity="0.25"/>
<circle cx="78" cy="180" r="5" fill="#FF7F4E"/>
<circle cx="58" cy="180" r="5" fill="#FF7F4E"/>
<circle cx="98" cy="160" r="5" fill="#FF7F4E"/>
<circle cx="98" cy="140" r="5" fill="#FF7F4E"/>
<circle cx="78" cy="160" r="5" fill="#FF7F4E"/>
<circle cx="58" cy="140" r="5" fill="#FF7F4E"/>
<rect x="93" y="175" width="10" height="10" rx="1" fill="#FF7F4E"/>
<rect x="73" y="75" width="10" height="10" rx="1" fill="#FF7F4E"/>
<circle cx="38" cy="120" r="5" fill="#FF7F4E"/>
<circle cx="58" cy="100" r="5" fill="#FF7F4E"/>
<circle cx="98" cy="60" r="5" fill="#FF7F4E"/>
<circle cx="138" cy="60" r="5" transform="rotate(180 138 60)" fill="#FF7F4E"/>
<circle cx="158" cy="60" r="5" transform="rotate(180 158 60)" fill="#FF7F4E"/>
<circle cx="178" cy="60" r="5" transform="rotate(180 178 60)" fill="#FF7F4E"/>
<circle cx="138" cy="80" r="5" transform="rotate(180 138 80)" fill="#FF7F4E"/>
<circle cx="158" cy="80" r="5" transform="rotate(180 158 80)" fill="#FF7F4E"/>
<circle cx="178" cy="100" r="5" transform="rotate(180 178 100)" fill="#FF7F4E"/>
<circle cx="178" cy="140" r="5" transform="rotate(180 178 140)" fill="#FF7F4E"/>
<circle cx="138" cy="180" r="5" transform="rotate(180 138 180)" fill="#FF7F4E"/>
<rect x="133" y="95" width="10" height="10" rx="1" fill="#FF7F4E"/>
<rect x="193" y="115" width="10" height="10" rx="1" fill="#FF7F4E"/>
<rect x="153" y="155" width="10" height="10" rx="1" fill="#FF7F4E"/>
</svg>
