<svg width="297" height="320" viewBox="0 0 297 320" fill="none" xmlns="http://www.w3.org/2000/svg">
<circle cx="52.6989" cy="3.94401" r="3.94401" fill="white" fill-opacity="0.25"/>
<circle cx="76.6486" cy="3.94401" r="3.94401" fill="white" fill-opacity="0.25"/>
<circle cx="100.598" cy="3.94401" r="3.94401" fill="white" fill-opacity="0.25"/>
<circle cx="124.548" cy="3.94401" r="3.94401" fill="white" fill-opacity="0.25"/>
<circle cx="148.498" cy="3.94401" r="3.94401" fill="white" fill-opacity="0.25"/>
<circle cx="172.448" cy="3.94401" r="3.94401" fill="white" fill-opacity="0.25"/>
<circle cx="196.398" cy="3.94401" r="3.94401" fill="white" fill-opacity="0.25"/>
<circle cx="220.347" cy="3.94401" r="3.94401" fill="white" fill-opacity="0.25"/>
<circle cx="244.297" cy="3.94401" r="3.94401" fill="white" fill-opacity="0.25"/>
<circle cx="28.7489" cy="27.8938" r="3.94401" fill="white" fill-opacity="0.25"/>
<circle cx="52.6989" cy="27.8938" r="3.94401" fill="white" fill-opacity="0.25"/>
<circle cx="76.6486" cy="27.8938" r="3.94401" fill="white" fill-opacity="0.25"/>
<circle cx="100.598" cy="27.8938" r="3.94401" fill="white" fill-opacity="0.25"/>
<circle cx="124.548" cy="27.8938" r="3.94401" fill="white" fill-opacity="0.25"/>
<circle cx="148.498" cy="27.8938" r="3.94401" fill="white" fill-opacity="0.25"/>
<circle cx="172.448" cy="27.8938" r="3.94401" fill="white" fill-opacity="0.25"/>
<circle cx="196.398" cy="27.8938" r="3.94401" fill="white" fill-opacity="0.25"/>
<circle cx="220.347" cy="27.8938" r="3.94401" fill="white" fill-opacity="0.25"/>
<circle cx="244.297" cy="27.8938" r="3.94401" fill="white" fill-opacity="0.25"/>
<circle cx="268.247" cy="27.8938" r="3.94401" fill="white" fill-opacity="0.25"/>
<circle cx="4.79923" cy="51.8436" r="3.94401" fill="white" fill-opacity="0.25"/>
<circle cx="28.7489" cy="51.8436" r="3.94401" fill="white" fill-opacity="0.25"/>
<circle cx="52.6989" cy="51.8436" r="3.94401" fill="white" fill-opacity="0.25"/>
<circle cx="76.6486" cy="51.8436" r="3.94401" fill="white" fill-opacity="0.25"/>
<circle cx="100.598" cy="51.8436" r="3.94401" fill="white" fill-opacity="0.25"/>
<circle cx="124.548" cy="51.8436" r="3.94401" fill="white" fill-opacity="0.25"/>
<circle cx="148.498" cy="51.8436" r="3.94401" fill="white" fill-opacity="0.25"/>
<circle cx="172.448" cy="51.8436" r="3.94401" fill="white" fill-opacity="0.25"/>
<circle cx="196.398" cy="51.8436" r="3.94401" fill="white" fill-opacity="0.25"/>
<circle cx="220.347" cy="51.8436" r="3.94401" fill="white" fill-opacity="0.25"/>
<circle cx="244.297" cy="51.8436" r="3.94401" fill="white" fill-opacity="0.25"/>
<circle cx="268.247" cy="51.8436" r="3.94401" fill="white" fill-opacity="0.25"/>
<circle cx="292.197" cy="51.8436" r="3.94401" fill="white" fill-opacity="0.25"/>
<circle cx="4.79923" cy="75.7934" r="3.94401" fill="white" fill-opacity="0.25"/>
<circle cx="28.7489" cy="75.7934" r="3.94401" fill="white" fill-opacity="0.25"/>
<circle cx="52.6989" cy="75.7934" r="3.94401" fill="white" fill-opacity="0.25"/>
<circle cx="76.6486" cy="75.7934" r="3.94401" fill="white" fill-opacity="0.25"/>
<circle cx="100.598" cy="75.7934" r="3.94401" fill="white" fill-opacity="0.25"/>
<circle cx="124.548" cy="75.7934" r="3.94401" fill="white" fill-opacity="0.25"/>
<circle cx="148.498" cy="75.7934" r="3.94401" fill="white" fill-opacity="0.25"/>
<circle cx="172.448" cy="75.7934" r="3.94401" fill="white" fill-opacity="0.25"/>
<circle cx="196.398" cy="75.7934" r="3.94401" fill="white" fill-opacity="0.25"/>
<circle cx="220.347" cy="75.7934" r="3.94401" fill="white" fill-opacity="0.25"/>
<circle cx="244.297" cy="75.7934" r="3.94401" fill="white" fill-opacity="0.25"/>
<circle cx="268.247" cy="75.7934" r="3.94401" fill="white" fill-opacity="0.25"/>
<circle cx="292.197" cy="75.7934" r="3.94401" fill="white" fill-opacity="0.25"/>
<circle cx="4.79923" cy="99.7432" r="3.94401" fill="white" fill-opacity="0.25"/>
<circle cx="28.7489" cy="99.7432" r="3.94401" fill="white" fill-opacity="0.25"/>
<circle cx="52.6989" cy="99.7432" r="3.94401" fill="white" fill-opacity="0.25"/>
<circle cx="76.6486" cy="99.7432" r="3.94401" fill="white" fill-opacity="0.25"/>
<circle cx="100.598" cy="99.7432" r="3.94401" fill="white" fill-opacity="0.25"/>
<circle cx="124.548" cy="99.7432" r="3.94401" fill="white" fill-opacity="0.25"/>
<circle cx="148.498" cy="99.7432" r="3.94401" fill="white" fill-opacity="0.25"/>
<circle cx="172.448" cy="99.7432" r="3.94401" fill="white" fill-opacity="0.25"/>
<circle cx="196.398" cy="99.7432" r="3.94401" fill="white" fill-opacity="0.25"/>
<circle cx="220.347" cy="99.7432" r="3.94401" fill="white" fill-opacity="0.25"/>
<circle cx="244.297" cy="99.7432" r="3.94401" fill="white" fill-opacity="0.25"/>
<circle cx="268.247" cy="99.7432" r="3.94401" fill="white" fill-opacity="0.25"/>
<circle cx="292.197" cy="99.7432" r="3.94401" fill="white" fill-opacity="0.25"/>
<circle cx="4.79923" cy="123.693" r="3.94401" fill="white" fill-opacity="0.25"/>
<circle cx="28.7489" cy="123.693" r="3.94401" fill="white" fill-opacity="0.25"/>
<circle cx="52.6989" cy="123.693" r="3.94401" fill="white" fill-opacity="0.25"/>
<circle cx="76.6486" cy="123.693" r="3.94401" fill="white" fill-opacity="0.25"/>
<circle cx="100.598" cy="123.693" r="3.94401" fill="white" fill-opacity="0.25"/>
<circle cx="124.548" cy="123.693" r="3.94401" fill="white" fill-opacity="0.25"/>
<circle cx="148.498" cy="123.693" r="3.94401" fill="white" fill-opacity="0.25"/>
<circle cx="172.448" cy="123.693" r="3.94401" fill="white" fill-opacity="0.25"/>
<circle cx="196.398" cy="123.693" r="3.94401" fill="white" fill-opacity="0.25"/>
<circle cx="220.347" cy="123.693" r="3.94401" fill="white" fill-opacity="0.25"/>
<circle cx="244.297" cy="123.693" r="3.94401" fill="white" fill-opacity="0.25"/>
<circle cx="268.247" cy="123.693" r="3.94401" fill="white" fill-opacity="0.25"/>
<circle cx="292.197" cy="123.693" r="3.94401" fill="white" fill-opacity="0.25"/>
<circle cx="4.79923" cy="147.643" r="3.94401" fill="white" fill-opacity="0.25"/>
<circle cx="28.7489" cy="147.643" r="3.94401" fill="white" fill-opacity="0.25"/>
<circle cx="52.6989" cy="147.643" r="3.94401" fill="white" fill-opacity="0.25"/>
<circle cx="76.6486" cy="147.643" r="3.94401" fill="white" fill-opacity="0.25"/>
<circle cx="100.598" cy="147.643" r="3.94401" fill="white" fill-opacity="0.25"/>
<circle cx="124.548" cy="147.643" r="3.94401" fill="white" fill-opacity="0.25"/>
<circle cx="148.498" cy="147.643" r="3.94401" fill="white" fill-opacity="0.25"/>
<circle cx="172.448" cy="147.643" r="3.94401" fill="white" fill-opacity="0.25"/>
<circle cx="196.398" cy="147.643" r="3.94401" fill="white" fill-opacity="0.25"/>
<circle cx="220.347" cy="147.643" r="3.94401" fill="white" fill-opacity="0.25"/>
<circle cx="244.297" cy="147.643" r="3.94401" fill="white" fill-opacity="0.25"/>
<circle cx="268.247" cy="147.643" r="3.94401" fill="white" fill-opacity="0.25"/>
<circle cx="292.197" cy="147.643" r="3.94401" fill="white" fill-opacity="0.25"/>
<circle cx="4.79923" cy="171.593" r="3.94401" fill="white" fill-opacity="0.25"/>
<circle cx="28.7489" cy="171.593" r="3.94401" fill="white" fill-opacity="0.25"/>
<circle cx="52.6989" cy="171.593" r="3.94401" fill="white" fill-opacity="0.25"/>
<circle cx="76.6486" cy="171.593" r="3.94401" fill="white" fill-opacity="0.25"/>
<circle cx="100.598" cy="171.593" r="3.94401" fill="white" fill-opacity="0.25"/>
<circle cx="124.548" cy="171.593" r="3.94401" fill="white" fill-opacity="0.25"/>
<circle cx="148.498" cy="171.593" r="3.94401" fill="white" fill-opacity="0.25"/>
<circle cx="172.448" cy="171.593" r="3.94401" fill="white" fill-opacity="0.25"/>
<circle cx="196.398" cy="171.593" r="3.94401" fill="white" fill-opacity="0.25"/>
<circle cx="220.347" cy="171.593" r="3.94401" fill="white" fill-opacity="0.25"/>
<circle cx="244.297" cy="171.593" r="3.94401" fill="white" fill-opacity="0.25"/>
<circle cx="268.247" cy="171.593" r="3.94401" fill="white" fill-opacity="0.25"/>
<circle cx="292.197" cy="171.593" r="3.94401" fill="white" fill-opacity="0.25"/>
<circle cx="4.79923" cy="195.542" r="3.94401" fill="white" fill-opacity="0.25"/>
<circle cx="28.7489" cy="195.542" r="3.94401" fill="white" fill-opacity="0.25"/>
<circle cx="52.6989" cy="195.542" r="3.94401" fill="white" fill-opacity="0.25"/>
<circle cx="76.6486" cy="195.542" r="3.94401" fill="white" fill-opacity="0.25"/>
<circle cx="100.598" cy="195.542" r="3.94401" fill="white" fill-opacity="0.25"/>
<circle cx="124.548" cy="195.542" r="3.94401" fill="white" fill-opacity="0.25"/>
<circle cx="148.498" cy="195.542" r="3.94401" fill="white" fill-opacity="0.25"/>
<circle cx="172.448" cy="195.542" r="3.94401" fill="white" fill-opacity="0.25"/>
<circle cx="196.398" cy="195.542" r="3.94401" fill="white" fill-opacity="0.25"/>
<circle cx="220.347" cy="195.542" r="3.94401" fill="white" fill-opacity="0.25"/>
<circle cx="244.297" cy="195.542" r="3.94401" fill="white" fill-opacity="0.25"/>
<circle cx="268.247" cy="195.542" r="3.94401" fill="white" fill-opacity="0.25"/>
<circle cx="292.197" cy="195.542" r="3.94401" fill="white" fill-opacity="0.25"/>
<circle cx="4.79923" cy="219.492" r="3.94401" fill="white" fill-opacity="0.25"/>
<circle cx="28.7489" cy="219.492" r="3.94401" fill="white" fill-opacity="0.25"/>
<circle cx="52.6989" cy="219.492" r="3.94401" fill="white" fill-opacity="0.25"/>
<circle cx="76.6486" cy="219.492" r="3.94401" fill="white" fill-opacity="0.25"/>
<circle cx="100.598" cy="219.492" r="3.94401" fill="white" fill-opacity="0.25"/>
<circle cx="124.548" cy="219.492" r="3.94401" fill="white" fill-opacity="0.25"/>
<circle cx="148.498" cy="219.492" r="3.94401" fill="white" fill-opacity="0.25"/>
<circle cx="172.448" cy="219.492" r="3.94401" fill="white" fill-opacity="0.25"/>
<circle cx="196.398" cy="219.492" r="3.94401" fill="white" fill-opacity="0.25"/>
<circle cx="220.347" cy="219.492" r="3.94401" fill="white" fill-opacity="0.25"/>
<circle cx="244.297" cy="219.492" r="3.94401" fill="white" fill-opacity="0.25"/>
<circle cx="268.247" cy="219.492" r="3.94401" fill="white" fill-opacity="0.25"/>
<circle cx="292.197" cy="219.492" r="3.94401" fill="white" fill-opacity="0.25"/>
<circle cx="4.79923" cy="243.442" r="3.94401" fill="white" fill-opacity="0.25"/>
<circle cx="28.7489" cy="243.442" r="3.94401" fill="white" fill-opacity="0.25"/>
<circle cx="52.6989" cy="243.442" r="3.94401" fill="white" fill-opacity="0.25"/>
<circle cx="76.6486" cy="243.442" r="3.94401" fill="white" fill-opacity="0.25"/>
<circle cx="100.598" cy="243.442" r="3.94401" fill="white" fill-opacity="0.25"/>
<circle cx="124.548" cy="243.442" r="3.94401" fill="white" fill-opacity="0.25"/>
<circle cx="148.498" cy="243.442" r="3.94401" fill="white" fill-opacity="0.25"/>
<circle cx="172.448" cy="243.442" r="3.94401" fill="white" fill-opacity="0.25"/>
<circle cx="196.398" cy="243.442" r="3.94401" fill="white" fill-opacity="0.25"/>
<circle cx="220.347" cy="243.442" r="3.94401" fill="white" fill-opacity="0.25"/>
<circle cx="244.297" cy="243.442" r="3.94401" fill="white" fill-opacity="0.25"/>
<circle cx="268.247" cy="243.442" r="3.94401" fill="white" fill-opacity="0.25"/>
<circle cx="292.197" cy="243.442" r="3.94401" fill="white" fill-opacity="0.25"/>
<circle cx="28.7489" cy="267.392" r="3.94401" fill="white" fill-opacity="0.25"/>
<circle cx="52.6989" cy="267.392" r="3.94401" fill="white" fill-opacity="0.25"/>
<circle cx="76.6486" cy="267.392" r="3.94401" fill="white" fill-opacity="0.25"/>
<circle cx="100.598" cy="267.392" r="3.94401" fill="white" fill-opacity="0.25"/>
<circle cx="124.548" cy="267.392" r="3.94401" fill="white" fill-opacity="0.25"/>
<circle cx="148.498" cy="267.392" r="3.94401" fill="white" fill-opacity="0.25"/>
<circle cx="172.448" cy="267.392" r="3.94401" fill="white" fill-opacity="0.25"/>
<circle cx="196.398" cy="267.392" r="3.94401" fill="white" fill-opacity="0.25"/>
<circle cx="220.347" cy="267.392" r="3.94401" fill="white" fill-opacity="0.25"/>
<circle cx="244.297" cy="267.392" r="3.94401" fill="white" fill-opacity="0.25"/>
<circle cx="268.247" cy="267.392" r="3.94401" fill="white" fill-opacity="0.25"/>
<circle cx="292.676" cy="267.392" r="3.94401" fill="white" fill-opacity="0.25"/>
<circle cx="52.6989" cy="291.342" r="3.94401" fill="white" fill-opacity="0.25"/>
<circle cx="29.5097" cy="291.342" r="3.94401" fill="white" fill-opacity="0.25"/>
<circle cx="52.6989" cy="315.295" r="3.94401" fill="white" fill-opacity="0.25"/>
<circle cx="76.6486" cy="291.342" r="3.94401" fill="white" fill-opacity="0.25"/>
<circle cx="76.6486" cy="315.295" r="3.94401" fill="white" fill-opacity="0.25"/>
<circle cx="100.598" cy="291.342" r="3.94401" fill="white" fill-opacity="0.25"/>
<circle cx="100.598" cy="315.295" r="3.94401" fill="white" fill-opacity="0.25"/>
<circle cx="124.548" cy="291.342" r="3.94401" fill="white" fill-opacity="0.25"/>
<circle cx="124.548" cy="315.295" r="3.94401" fill="white" fill-opacity="0.25"/>
<circle cx="148.498" cy="291.342" r="3.94401" fill="white" fill-opacity="0.25"/>
<circle cx="148.498" cy="315.295" r="3.94401" fill="white" fill-opacity="0.25"/>
<circle cx="172.448" cy="291.342" r="3.94401" fill="white" fill-opacity="0.25"/>
<circle cx="172.448" cy="315.295" r="3.94401" fill="white" fill-opacity="0.25"/>
<circle cx="196.398" cy="291.342" r="3.94401" fill="white" fill-opacity="0.25"/>
<circle cx="196.398" cy="315.295" r="3.94401" fill="white" fill-opacity="0.25"/>
<circle cx="220.347" cy="291.342" r="3.94401" fill="white" fill-opacity="0.25"/>
<circle cx="220.347" cy="315.295" r="3.94401" fill="white" fill-opacity="0.25"/>
<circle cx="244.297" cy="291.342" r="3.94401" fill="white" fill-opacity="0.25"/>
<circle cx="267.965" cy="291.342" r="3.94401" fill="white" fill-opacity="0.25"/>
<circle cx="244.297" cy="315.295" r="3.94401" fill="white" fill-opacity="0.25"/>
<circle cx="4.79923" cy="267.392" r="3.94401" fill="white" fill-opacity="0.25"/>
<circle cx="147.882" cy="25.9459" r="6.17761" transform="rotate(180 147.882 25.9459)" fill="#FF7F4E"/>
<circle cx="6.17761" cy="6.17761" r="6.17761" transform="matrix(-1 0 0 1 154.06 285.405)" fill="#FF7F4E"/>
<circle cx="123.172" cy="50.6564" r="6.17761" transform="rotate(180 123.172 50.6564)" fill="#FF7F4E"/>
<circle cx="98.4613" cy="75.3668" r="6.17761" transform="rotate(180 98.4613 75.3668)" fill="#FF7F4E"/>
<circle cx="6.17761" cy="6.17761" r="6.17761" transform="matrix(-1 0 0 1 104.639 235.985)" fill="#FF7F4E"/>
<circle cx="73.7511" cy="100.077" r="6.17761" transform="rotate(180 73.7511 100.077)" fill="#FF7F4E"/>
<circle cx="73.7511" cy="124.788" r="6.17761" transform="rotate(180 73.7511 124.788)" fill="#FF7F4E"/>
<circle cx="6.17761" cy="6.17761" r="6.17761" transform="matrix(-1 0 0 1 79.9287 211.274)" fill="#FF7F4E"/>
<circle cx="98.4613" cy="100.077" r="6.17761" transform="rotate(180 98.4613 100.077)" fill="#FF7F4E"/>
<circle cx="98.4613" cy="124.788" r="6.17761" transform="rotate(180 98.4613 124.788)" fill="#FF7F4E"/>
<circle cx="98.4613" cy="149.498" r="6.17761" transform="rotate(180 98.4613 149.498)" fill="#FF7F4E"/>
<circle cx="73.7511" cy="149.498" r="6.17761" transform="rotate(180 73.7511 149.498)" fill="#FF7F4E"/>
<circle cx="6.17761" cy="6.17761" r="6.17761" transform="matrix(-1 0 0 1 104.639 211.274)" fill="#FF7F4E"/>
<circle cx="123.172" cy="100.077" r="6.17761" transform="rotate(180 123.172 100.077)" fill="#FF7F4E"/>
<circle cx="123.172" cy="124.788" r="6.17761" transform="rotate(180 123.172 124.788)" fill="#FF7F4E"/>
<circle cx="123.172" cy="149.498" r="6.17761" transform="rotate(180 123.172 149.498)" fill="#FF7F4E"/>
<circle cx="123.172" cy="172.266" r="6.17761" transform="rotate(180 123.172 172.266)" fill="#FF7F4E"/>
<circle cx="123.172" cy="193.977" r="6.17761" transform="rotate(180 123.172 193.977)" fill="#FF7F4E"/>
<circle cx="98.4616" cy="172.266" r="6.17761" transform="rotate(180 98.4616 172.266)" fill="#FF7F4E"/>
<circle cx="147.882" cy="100.077" r="6.17761" transform="rotate(180 147.882 100.077)" fill="#FF7F4E"/>
<circle cx="147.882" cy="124.788" r="6.17761" transform="rotate(180 147.882 124.788)" fill="#FF7F4E"/>
<circle cx="147.882" cy="149.498" r="6.17761" transform="rotate(180 147.882 149.498)" fill="#FF7F4E"/>
<circle cx="147.882" cy="193.977" r="6.17761" transform="rotate(180 147.882 193.977)" fill="#FF7F4E"/>
<circle cx="147.882" cy="218.687" r="6.17761" transform="rotate(180 147.882 218.687)" fill="#FF7F4E"/>
<circle cx="172.593" cy="100.077" r="6.17761" transform="rotate(180 172.593 100.077)" fill="#FF7F4E"/>
<circle cx="172.593" cy="124.788" r="6.17761" transform="rotate(180 172.593 124.788)" fill="#FF7F4E"/>
<circle cx="172.593" cy="149.498" r="6.17761" transform="rotate(180 172.593 149.498)" fill="#FF7F4E"/>
<circle cx="172.593" cy="172.266" r="6.17761" transform="rotate(180 172.593 172.266)" fill="#FF7F4E"/>
<circle cx="172.593" cy="193.977" r="6.17761" transform="rotate(180 172.593 193.977)" fill="#FF7F4E"/>
<circle cx="197.303" cy="172.266" r="6.17761" transform="rotate(180 197.303 172.266)" fill="#FF7F4E"/>
<circle cx="197.303" cy="100.077" r="6.17761" transform="rotate(180 197.303 100.077)" fill="#FF7F4E"/>
<circle cx="197.303" cy="124.788" r="6.17761" transform="rotate(180 197.303 124.788)" fill="#FF7F4E"/>
<circle cx="197.303" cy="149.498" r="6.17761" transform="rotate(180 197.303 149.498)" fill="#FF7F4E"/>
<circle cx="222.014" cy="149.498" r="6.17761" transform="rotate(180 222.014 149.498)" fill="#FF7F4E"/>
<circle cx="6.17761" cy="6.17761" r="6.17761" transform="matrix(-1 0 0 1 203.481 211.274)" fill="#FF7F4E"/>
<circle cx="222.014" cy="124.788" r="6.17761" transform="rotate(180 222.014 124.788)" fill="#FF7F4E"/>
<circle cx="246.724" cy="124.788" r="6.17761" transform="rotate(180 246.724 124.788)" fill="#FF7F4E"/>
<circle cx="6.17761" cy="6.17761" r="6.17761" transform="matrix(-1 0 0 1 228.191 211.274)" fill="#FF7F4E"/>
<circle cx="123.172" cy="75.3668" r="6.17761" transform="rotate(180 123.172 75.3668)" fill="#FF7F4E"/>
<circle cx="6.17761" cy="6.17761" r="6.17761" transform="matrix(-1 0 0 1 129.349 235.985)" fill="#FF7F4E"/>
<circle cx="147.882" cy="75.3668" r="6.17761" transform="rotate(180 147.882 75.3668)" fill="#FF7F4E"/>
<circle cx="172.593" cy="75.3668" r="6.17761" transform="rotate(180 172.593 75.3668)" fill="#FF7F4E"/>
<circle cx="6.17761" cy="6.17761" r="6.17761" transform="matrix(-1 0 0 1 178.77 235.985)" fill="#FF7F4E"/>
<circle cx="197.303" cy="75.3668" r="6.17761" transform="rotate(180 197.303 75.3668)" fill="#FF7F4E"/>
<circle cx="147.882" cy="50.6564" r="6.17761" transform="rotate(180 147.882 50.6564)" fill="#FF7F4E"/>
<circle cx="6.17761" cy="6.17761" r="6.17761" transform="matrix(-1 0 0 1 154.06 260.695)" fill="#FF7F4E"/>
<circle cx="6.17761" cy="6.17761" r="6.17761" transform="matrix(-1 0 0 1 178.77 260.695)" fill="#FF7F4E"/>
<rect x="43" y="119" width="12.36" height="12.36" rx="1" fill="#FF7F4E"/>
<rect x="142" y="166" width="12.36" height="12.36" rx="1" fill="#FF7F4E"/>
<rect x="191" y="236" width="12.36" height="12.36" rx="1" fill="#FF7F4E"/>
<rect x="117" y="261" width="12.36" height="12.36" rx="1" fill="#FF7F4E"/>
<rect x="166" y="44" width="12.36" height="12.36" rx="1" fill="#FF7F4E"/>
<rect x="216" y="94" width="12.36" height="12.36" rx="1" fill="#FF7F4E"/>
</svg>
