<svg width="81" height="80" viewBox="0 0 81 80" fill="none" xmlns="http://www.w3.org/2000/svg">
<circle cx="21.4716" cy="1.94391" r="1.56672" fill="white" fill-opacity="0.25"/>
<circle cx="30.9854" cy="1.94391" r="1.56672" fill="white" fill-opacity="0.25"/>
<circle cx="40.4991" cy="1.94391" r="1.56672" fill="white" fill-opacity="0.25"/>
<circle cx="50.0131" cy="1.94391" r="1.56672" fill="white" fill-opacity="0.25"/>
<circle cx="59.5268" cy="1.94391" r="1.56672" fill="white" fill-opacity="0.25"/>
<circle cx="11.9578" cy="11.4578" r="1.56672" fill="white" fill-opacity="0.25"/>
<circle cx="21.4716" cy="11.4578" r="1.56672" fill="white" fill-opacity="0.25"/>
<circle cx="30.9854" cy="11.4578" r="1.56672" fill="white" fill-opacity="0.25"/>
<circle cx="40.4991" cy="11.4578" r="1.56672" fill="white" fill-opacity="0.25"/>
<circle cx="50.0131" cy="11.4578" r="1.56672" fill="white" fill-opacity="0.25"/>
<circle cx="59.5268" cy="11.4578" r="1.56672" fill="white" fill-opacity="0.25"/>
<circle cx="69.0406" cy="11.4578" r="1.56672" fill="white" fill-opacity="0.25"/>
<circle cx="2.44404" cy="20.9715" r="1.56672" fill="white" fill-opacity="0.25"/>
<circle cx="11.9578" cy="20.9715" r="1.56672" fill="white" fill-opacity="0.25"/>
<circle cx="21.4716" cy="20.9715" r="1.56672" fill="white" fill-opacity="0.25"/>
<circle cx="30.9854" cy="20.9715" r="1.56672" fill="white" fill-opacity="0.25"/>
<circle cx="40.4991" cy="20.9715" r="1.56672" fill="white" fill-opacity="0.25"/>
<circle cx="50.0131" cy="20.9715" r="1.56672" fill="white" fill-opacity="0.25"/>
<circle cx="59.5268" cy="20.9715" r="1.56672" fill="white" fill-opacity="0.25"/>
<circle cx="69.0406" cy="20.9715" r="1.56672" fill="white" fill-opacity="0.25"/>
<circle cx="78.5545" cy="20.9715" r="1.56672" fill="white" fill-opacity="0.25"/>
<circle cx="2.44404" cy="30.4854" r="1.56672" fill="white" fill-opacity="0.25"/>
<circle cx="11.9578" cy="30.4854" r="1.56672" fill="white" fill-opacity="0.25"/>
<circle cx="21.4716" cy="30.4854" r="1.56672" fill="white" fill-opacity="0.25"/>
<circle cx="30.9854" cy="30.4854" r="1.56672" fill="white" fill-opacity="0.25"/>
<circle cx="40.4991" cy="30.4854" r="1.56672" fill="white" fill-opacity="0.25"/>
<circle cx="50.0131" cy="30.4854" r="1.56672" fill="white" fill-opacity="0.25"/>
<circle cx="59.5268" cy="30.4854" r="1.56672" fill="white" fill-opacity="0.25"/>
<circle cx="69.0406" cy="30.4854" r="1.56672" fill="white" fill-opacity="0.25"/>
<circle cx="78.5545" cy="30.4854" r="1.56672" fill="white" fill-opacity="0.25"/>
<circle cx="2.44404" cy="39.9991" r="1.56672" fill="white" fill-opacity="0.25"/>
<circle cx="11.9578" cy="39.9991" r="1.56672" fill="white" fill-opacity="0.25"/>
<circle cx="21.4716" cy="39.9991" r="1.56672" fill="white" fill-opacity="0.25"/>
<circle cx="30.9854" cy="39.9991" r="1.56672" fill="white" fill-opacity="0.25"/>
<circle cx="40.4991" cy="39.9991" r="1.56672" fill="white" fill-opacity="0.25"/>
<circle cx="50.0131" cy="39.9991" r="1.56672" fill="white" fill-opacity="0.25"/>
<circle cx="59.5268" cy="39.9991" r="1.56672" fill="white" fill-opacity="0.25"/>
<circle cx="69.0406" cy="39.9991" r="1.56672" fill="white" fill-opacity="0.25"/>
<circle cx="78.5545" cy="39.9991" r="1.56672" fill="white" fill-opacity="0.25"/>
<circle cx="2.44404" cy="49.513" r="1.56672" fill="white" fill-opacity="0.25"/>
<circle cx="11.9578" cy="49.513" r="1.56672" fill="white" fill-opacity="0.25"/>
<circle cx="21.4716" cy="49.513" r="1.56672" fill="white" fill-opacity="0.25"/>
<circle cx="30.9854" cy="49.513" r="1.56672" fill="white" fill-opacity="0.25"/>
<circle cx="40.4991" cy="49.513" r="1.56672" fill="white" fill-opacity="0.25"/>
<circle cx="50.0131" cy="49.513" r="1.56672" fill="white" fill-opacity="0.25"/>
<circle cx="59.5268" cy="49.513" r="1.56672" fill="white" fill-opacity="0.25"/>
<circle cx="69.0406" cy="49.513" r="1.56672" fill="white" fill-opacity="0.25"/>
<circle cx="78.5545" cy="49.513" r="1.56672" fill="white" fill-opacity="0.25"/>
<circle cx="2.44404" cy="59.0267" r="1.56672" fill="white" fill-opacity="0.25"/>
<circle cx="11.9578" cy="59.0267" r="1.56672" fill="white" fill-opacity="0.25"/>
<circle cx="21.4716" cy="59.0267" r="1.56672" fill="white" fill-opacity="0.25"/>
<circle cx="30.9854" cy="59.0267" r="1.56672" fill="white" fill-opacity="0.25"/>
<circle cx="40.4991" cy="59.0267" r="1.56672" fill="white" fill-opacity="0.25"/>
<circle cx="50.0131" cy="59.0267" r="1.56672" fill="white" fill-opacity="0.25"/>
<circle cx="59.5268" cy="59.0267" r="1.56672" fill="white" fill-opacity="0.25"/>
<circle cx="69.0406" cy="59.0267" r="1.56672" fill="white" fill-opacity="0.25"/>
<circle cx="78.5545" cy="59.0267" r="1.56672" fill="white" fill-opacity="0.25"/>
<circle cx="11.9578" cy="68.5406" r="1.56672" fill="white" fill-opacity="0.25"/>
<circle cx="21.4716" cy="68.5406" r="1.56672" fill="white" fill-opacity="0.25"/>
<circle cx="30.9854" cy="68.5406" r="1.56672" fill="white" fill-opacity="0.25"/>
<circle cx="40.4991" cy="68.5406" r="1.56672" fill="white" fill-opacity="0.25"/>
<circle cx="50.0131" cy="68.5406" r="1.56672" fill="white" fill-opacity="0.25"/>
<circle cx="59.5268" cy="68.5406" r="1.56672" fill="white" fill-opacity="0.25"/>
<circle cx="69.0406" cy="68.5406" r="1.56672" fill="white" fill-opacity="0.25"/>
<circle cx="21.4716" cy="78.0543" r="1.56672" fill="white" fill-opacity="0.25"/>
<circle cx="30.9854" cy="78.0543" r="1.56672" fill="white" fill-opacity="0.25"/>
<circle cx="40.4991" cy="78.0543" r="1.56672" fill="white" fill-opacity="0.25"/>
<circle cx="50.0131" cy="78.0543" r="1.56672" fill="white" fill-opacity="0.25"/>
<circle cx="59.5268" cy="78.0543" r="1.56672" fill="white" fill-opacity="0.25"/>
<circle cx="40.954" cy="11.454" r="2.45399" fill="#FF7F4E"/>
<circle cx="30.954" cy="20.454" r="2.45399" fill="#FF7F4E"/>
<circle cx="40.954" cy="30.454" r="2.45399" fill="#FF7F4E"/>
<circle cx="30.954" cy="40.454" r="2.45399" fill="#FF7F4E"/>
<circle cx="20.954" cy="49.454" r="2.45399" fill="#FF7F4E"/>
<circle cx="20.954" cy="59.454" r="2.45399" fill="#FF7F4E"/>
<circle cx="40.954" cy="69.454" r="2.45399" fill="#FF7F4E"/>
<circle cx="49.954" cy="69.454" r="2.45399" fill="#FF7F4E"/>
<circle cx="59.954" cy="59.454" r="2.45399" fill="#FF7F4E"/>
<circle cx="50.954" cy="40.454" r="2.45399" fill="#FF7F4E"/>
<circle cx="59.954" cy="50.454" r="2.45399" fill="#FF7F4E"/>
<circle cx="49.954" cy="20.454" r="2.45399" fill="#FF7F4E"/>
<rect x="28.5" y="67" width="4.90798" height="4.90798" rx="0.490798" fill="#FF7F4E"/>
<rect x="48.5" y="38" width="4.90798" height="4.90798" rx="0.490798" fill="#FF7F4E"/>
</svg>
