<svg width="109" height="121" viewBox="0 0 109 121" fill="none" xmlns="http://www.w3.org/2000/svg">
<circle cx="39.9717" cy="21.9439" r="1.56672" fill="#1E1E1E" fill-opacity="0.25"/>
<circle cx="30.5667" cy="21.9439" r="1.56672" fill="#1E1E1E" fill-opacity="0.25"/>
<circle cx="21.5667" cy="21.9439" r="1.56672" fill="#1E1E1E" fill-opacity="0.25"/>
<circle cx="21.5667" cy="11.5667" r="1.56672" fill="#1E1E1E" fill-opacity="0.25"/>
<circle cx="39.9717" cy="11.9439" r="1.56672" fill="#1E1E1E" fill-opacity="0.25"/>
<circle cx="39.972" cy="1.94391" r="1.56672" fill="#1E1E1E" fill-opacity="0.25"/>
<circle cx="30.5667" cy="11.9439" r="1.56672" fill="#1E1E1E" fill-opacity="0.25"/>
<circle cx="49.4857" cy="21.9439" r="1.56672" fill="#1E1E1E" fill-opacity="0.25"/>
<circle cx="49.4857" cy="11.9439" r="1.56672" fill="#1E1E1E" fill-opacity="0.25"/>
<circle cx="49.4857" cy="1.94391" r="1.56672" fill="#1E1E1E" fill-opacity="0.25"/>
<circle cx="58.9993" cy="21.9439" r="1.56672" fill="#1E1E1E" fill-opacity="0.25"/>
<circle cx="58.9993" cy="11.9439" r="1.56672" fill="#1E1E1E" fill-opacity="0.25"/>
<circle cx="58.9993" cy="1.94391" r="1.56672" fill="#1E1E1E" fill-opacity="0.25"/>
<circle cx="68.5133" cy="21.9439" r="1.56672" fill="#1E1E1E" fill-opacity="0.25"/>
<circle cx="68.5133" cy="11.9439" r="1.56672" fill="#1E1E1E" fill-opacity="0.25"/>
<circle cx="68.513" cy="1.94391" r="1.56672" fill="#1E1E1E" fill-opacity="0.25"/>
<circle cx="78.0269" cy="21.9439" r="1.56672" fill="#1E1E1E" fill-opacity="0.25"/>
<circle cx="87.5667" cy="21.9439" r="1.56672" fill="#1E1E1E" fill-opacity="0.25"/>
<circle cx="87.5667" cy="12.5667" r="1.56672" fill="#1E1E1E" fill-opacity="0.25"/>
<circle cx="96.5667" cy="21.9439" r="1.56672" fill="#1E1E1E" fill-opacity="0.25"/>
<circle cx="78.0269" cy="11.9439" r="1.56672" fill="#1E1E1E" fill-opacity="0.25"/>
<circle cx="30.4578" cy="31.4578" r="1.56672" fill="#1E1E1E" fill-opacity="0.25"/>
<circle cx="21.5667" cy="31.5667" r="1.56672" fill="#1E1E1E" fill-opacity="0.25"/>
<circle cx="11.5667" cy="31.5667" r="1.56672" fill="#1E1E1E" fill-opacity="0.25"/>
<circle cx="1.56672" cy="31.5667" r="1.56672" fill="#1E1E1E" fill-opacity="0.25"/>
<circle cx="39.9717" cy="31.4578" r="1.56672" fill="#1E1E1E" fill-opacity="0.25"/>
<circle cx="49.4857" cy="31.4578" r="1.56672" fill="#1E1E1E" fill-opacity="0.25"/>
<circle cx="58.9993" cy="31.4578" r="1.56672" fill="#1E1E1E" fill-opacity="0.25"/>
<circle cx="68.5133" cy="31.4578" r="1.56672" fill="#1E1E1E" fill-opacity="0.25"/>
<circle cx="78.0269" cy="31.4578" r="1.56672" fill="#1E1E1E" fill-opacity="0.25"/>
<circle cx="87.5406" cy="31.4578" r="1.56672" fill="#1E1E1E" fill-opacity="0.25"/>
<circle cx="96.5667" cy="31.4578" r="1.56672" fill="#1E1E1E" fill-opacity="0.25"/>
<circle cx="106.567" cy="31.4578" r="1.56672" fill="#1E1E1E" fill-opacity="0.25"/>
<circle cx="21.5667" cy="40.9715" r="1.56672" fill="#1E1E1E" fill-opacity="0.25"/>
<circle cx="11.5667" cy="40.9715" r="1.56672" fill="#1E1E1E" fill-opacity="0.25"/>
<circle cx="1.56672" cy="40.9715" r="1.56672" fill="#1E1E1E" fill-opacity="0.25"/>
<circle cx="30.4578" cy="40.9715" r="1.56672" fill="#1E1E1E" fill-opacity="0.25"/>
<circle cx="39.9717" cy="40.9715" r="1.56672" fill="#1E1E1E" fill-opacity="0.25"/>
<circle cx="49.4857" cy="40.9715" r="1.56672" fill="#1E1E1E" fill-opacity="0.25"/>
<circle cx="58.9993" cy="40.9715" r="1.56672" fill="#1E1E1E" fill-opacity="0.25"/>
<circle cx="68.5133" cy="40.9715" r="1.56672" fill="#1E1E1E" fill-opacity="0.25"/>
<circle cx="78.0269" cy="40.9715" r="1.56672" fill="#1E1E1E" fill-opacity="0.25"/>
<circle cx="87.5406" cy="40.9715" r="1.56672" fill="#1E1E1E" fill-opacity="0.25"/>
<circle cx="97.0545" cy="40.9715" r="1.56672" fill="#1E1E1E" fill-opacity="0.25"/>
<circle cx="107.055" cy="40.9715" r="1.56672" fill="#1E1E1E" fill-opacity="0.25"/>
<circle cx="21.5667" cy="50.4854" r="1.56672" fill="#1E1E1E" fill-opacity="0.25"/>
<circle cx="11.5667" cy="50.4852" r="1.56672" fill="#1E1E1E" fill-opacity="0.25"/>
<circle cx="1.56672" cy="50.4852" r="1.56672" fill="#1E1E1E" fill-opacity="0.25"/>
<circle cx="30.4578" cy="50.4854" r="1.56672" fill="#1E1E1E" fill-opacity="0.25"/>
<circle cx="39.9717" cy="50.4854" r="1.56672" fill="#1E1E1E" fill-opacity="0.25"/>
<circle cx="49.4857" cy="50.4854" r="1.56672" fill="#1E1E1E" fill-opacity="0.25"/>
<circle cx="58.9993" cy="50.4854" r="1.56672" fill="#1E1E1E" fill-opacity="0.25"/>
<circle cx="68.5133" cy="50.4854" r="1.56672" fill="#1E1E1E" fill-opacity="0.25"/>
<circle cx="78.0269" cy="50.4854" r="1.56672" fill="#1E1E1E" fill-opacity="0.25"/>
<circle cx="87.5406" cy="50.4854" r="1.56672" fill="#1E1E1E" fill-opacity="0.25"/>
<circle cx="97.0545" cy="50.4854" r="1.56672" fill="#1E1E1E" fill-opacity="0.25"/>
<circle cx="107.055" cy="50.4852" r="1.56672" fill="#1E1E1E" fill-opacity="0.25"/>
<circle cx="21.5667" cy="59.9991" r="1.56672" fill="#1E1E1E" fill-opacity="0.25"/>
<circle cx="11.5667" cy="59.9991" r="1.56672" fill="#1E1E1E" fill-opacity="0.25"/>
<circle cx="1.56672" cy="59.9991" r="1.56672" fill="#1E1E1E" fill-opacity="0.25"/>
<circle cx="30.4578" cy="59.9991" r="1.56672" fill="#1E1E1E" fill-opacity="0.25"/>
<circle cx="39.9717" cy="59.9991" r="1.56672" fill="#1E1E1E" fill-opacity="0.25"/>
<circle cx="49.4857" cy="59.9991" r="1.56672" fill="#1E1E1E" fill-opacity="0.25"/>
<circle cx="58.9993" cy="59.9991" r="1.56672" fill="#1E1E1E" fill-opacity="0.25"/>
<circle cx="68.5133" cy="59.9991" r="1.56672" fill="#1E1E1E" fill-opacity="0.25"/>
<circle cx="78.0269" cy="59.9991" r="1.56672" fill="#1E1E1E" fill-opacity="0.25"/>
<circle cx="87.5406" cy="59.9991" r="1.56672" fill="#1E1E1E" fill-opacity="0.25"/>
<circle cx="97.0545" cy="59.9991" r="1.56672" fill="#1E1E1E" fill-opacity="0.25"/>
<circle cx="107.055" cy="59.9991" r="1.56672" fill="#1E1E1E" fill-opacity="0.25"/>
<circle cx="21.5667" cy="69.513" r="1.56672" fill="#1E1E1E" fill-opacity="0.25"/>
<circle cx="11.5667" cy="69.513" r="1.56672" fill="#1E1E1E" fill-opacity="0.25"/>
<circle cx="1.56672" cy="69.513" r="1.56672" fill="#1E1E1E" fill-opacity="0.25"/>
<circle cx="30.4578" cy="69.513" r="1.56672" fill="#1E1E1E" fill-opacity="0.25"/>
<circle cx="39.9717" cy="69.513" r="1.56672" fill="#1E1E1E" fill-opacity="0.25"/>
<circle cx="49.4857" cy="69.513" r="1.56672" fill="#1E1E1E" fill-opacity="0.25"/>
<circle cx="58.9993" cy="69.513" r="1.56672" fill="#1E1E1E" fill-opacity="0.25"/>
<circle cx="68.5133" cy="69.513" r="1.56672" fill="#1E1E1E" fill-opacity="0.25"/>
<circle cx="78.0269" cy="69.513" r="1.56672" fill="#1E1E1E" fill-opacity="0.25"/>
<circle cx="87.5406" cy="69.513" r="1.56672" fill="#1E1E1E" fill-opacity="0.25"/>
<circle cx="97.0545" cy="69.513" r="1.56672" fill="#1E1E1E" fill-opacity="0.25"/>
<circle cx="107.055" cy="69.513" r="1.56672" fill="#1E1E1E" fill-opacity="0.25"/>
<circle cx="21.5667" cy="79.0267" r="1.56672" fill="#1E1E1E" fill-opacity="0.25"/>
<circle cx="11.5667" cy="79.0267" r="1.56672" fill="#1E1E1E" fill-opacity="0.25"/>
<circle cx="1.56672" cy="79.0267" r="1.56672" fill="#1E1E1E" fill-opacity="0.25"/>
<circle cx="30.4578" cy="79.0267" r="1.56672" fill="#1E1E1E" fill-opacity="0.25"/>
<circle cx="39.9717" cy="79.0267" r="1.56672" fill="#1E1E1E" fill-opacity="0.25"/>
<circle cx="49.4857" cy="79.0267" r="1.56672" fill="#1E1E1E" fill-opacity="0.25"/>
<circle cx="58.9993" cy="79.0267" r="1.56672" fill="#1E1E1E" fill-opacity="0.25"/>
<circle cx="68.5133" cy="79.0267" r="1.56672" fill="#1E1E1E" fill-opacity="0.25"/>
<circle cx="78.0269" cy="79.0267" r="1.56672" fill="#1E1E1E" fill-opacity="0.25"/>
<circle cx="87.5406" cy="79.0267" r="1.56672" fill="#1E1E1E" fill-opacity="0.25"/>
<circle cx="97.0545" cy="79.0267" r="1.56672" fill="#1E1E1E" fill-opacity="0.25"/>
<circle cx="107.055" cy="79.0267" r="1.56672" fill="#1E1E1E" fill-opacity="0.25"/>
<circle cx="30.4578" cy="88.5404" r="1.56672" fill="#1E1E1E" fill-opacity="0.25"/>
<circle cx="21.5667" cy="88.5404" r="1.56672" fill="#1E1E1E" fill-opacity="0.25"/>
<circle cx="21.5667" cy="98.5667" r="1.56672" fill="#1E1E1E" fill-opacity="0.25"/>
<circle cx="21.5667" cy="107.567" r="1.56672" fill="#1E1E1E" fill-opacity="0.25"/>
<circle cx="11.5667" cy="88.5404" r="1.56672" fill="#1E1E1E" fill-opacity="0.25"/>
<circle cx="1.56672" cy="88.5404" r="1.56672" fill="#1E1E1E" fill-opacity="0.25"/>
<circle cx="39.9717" cy="88.5406" r="1.56672" fill="#1E1E1E" fill-opacity="0.25"/>
<circle cx="49.4857" cy="88.5406" r="1.56672" fill="#1E1E1E" fill-opacity="0.25"/>
<circle cx="58.9993" cy="88.5406" r="1.56672" fill="#1E1E1E" fill-opacity="0.25"/>
<circle cx="68.5133" cy="88.5406" r="1.56672" fill="#1E1E1E" fill-opacity="0.25"/>
<circle cx="78.0269" cy="88.5406" r="1.56672" fill="#1E1E1E" fill-opacity="0.25"/>
<circle cx="87.5406" cy="88.5404" r="1.56672" fill="#1E1E1E" fill-opacity="0.25"/>
<circle cx="96.5667" cy="88.5404" r="1.56672" fill="#1E1E1E" fill-opacity="0.25"/>
<circle cx="106.567" cy="88.5404" r="1.56672" fill="#1E1E1E" fill-opacity="0.25"/>
<circle cx="39.9717" cy="98.0543" r="1.56672" fill="#1E1E1E" fill-opacity="0.25"/>
<circle cx="30.5667" cy="98.0543" r="1.56672" fill="#1E1E1E" fill-opacity="0.25"/>
<circle cx="39.9717" cy="108.054" r="1.56672" fill="#1E1E1E" fill-opacity="0.25"/>
<circle cx="39.972" cy="119.054" r="1.56672" fill="#1E1E1E" fill-opacity="0.25"/>
<circle cx="30.5667" cy="108.054" r="1.56672" fill="#1E1E1E" fill-opacity="0.25"/>
<circle cx="49.4857" cy="98.0543" r="1.56672" fill="#1E1E1E" fill-opacity="0.25"/>
<circle cx="49.4857" cy="108.054" r="1.56672" fill="#1E1E1E" fill-opacity="0.25"/>
<circle cx="49.4857" cy="119.054" r="1.56672" fill="#1E1E1E" fill-opacity="0.25"/>
<circle cx="58.9993" cy="98.0543" r="1.56672" fill="#1E1E1E" fill-opacity="0.25"/>
<circle cx="58.9993" cy="108.054" r="1.56672" fill="#1E1E1E" fill-opacity="0.25"/>
<circle cx="58.9993" cy="119.054" r="1.56672" fill="#1E1E1E" fill-opacity="0.25"/>
<circle cx="68.5133" cy="98.0543" r="1.56672" fill="#1E1E1E" fill-opacity="0.25"/>
<circle cx="68.5133" cy="108.054" r="1.56672" fill="#1E1E1E" fill-opacity="0.25"/>
<circle cx="68.513" cy="119.054" r="1.56672" fill="#1E1E1E" fill-opacity="0.25"/>
<circle cx="78.0269" cy="98.0543" r="1.56672" fill="#1E1E1E" fill-opacity="0.25"/>
<circle cx="87.5667" cy="98.0543" r="1.56672" fill="#1E1E1E" fill-opacity="0.25"/>
<circle cx="87.5667" cy="107.567" r="1.56672" fill="#1E1E1E" fill-opacity="0.25"/>
<circle cx="96.5667" cy="98.0543" r="1.56672" fill="#1E1E1E" fill-opacity="0.25"/>
<circle cx="78.0269" cy="108.054" r="1.56672" fill="#1E1E1E" fill-opacity="0.25"/>
<circle cx="11.5667" cy="98.5667" r="1.56672" fill="#1E1E1E" fill-opacity="0.25"/>
<circle cx="11.5667" cy="21.9442" r="1.56672" fill="#1E1E1E" fill-opacity="0.25"/>
<rect x="66" y="50" width="4.90798" height="4.90798" rx="0.490798" fill="#860CFF"/>
<circle cx="59.454" cy="72.454" r="2.45399" fill="#860CFF"/>
<circle cx="59.2638" cy="62.454" r="2.45399" fill="#860CFF"/>
<circle cx="59.8956" cy="42.454" r="2.45399" fill="#860CFF"/>
<circle cx="59.8956" cy="33.454" r="2.45399" fill="#860CFF"/>
<rect x="27.9939" y="49" width="4.90798" height="4.90798" rx="0.490798" fill="#860CFF"/>
<circle cx="40.2638" cy="42.454" r="2.45399" fill="#860CFF"/>
<circle cx="50.0797" cy="23.1227" r="2.45399" fill="#860CFF"/>
<circle cx="59.8956" cy="23.1227" r="2.45399" fill="#860CFF"/>
<circle cx="20.454" cy="61.454" r="2.45399" fill="#860CFF"/>
<circle cx="20.454" cy="51.454" r="2.45399" fill="#860CFF"/>
<circle cx="30.454" cy="41.454" r="2.45399" fill="#860CFF"/>
<circle cx="40.454" cy="32.454" r="2.45399" fill="#860CFF"/>
<circle cx="59.454" cy="81.454" r="2.45399" fill="#860CFF"/>
<circle cx="59.454" cy="91.454" r="2.45399" fill="#860CFF"/>
<circle cx="59.454" cy="52.454" r="2.45399" fill="#860CFF"/>
<circle cx="68.454" cy="62.454" r="2.45399" fill="#860CFF"/>
<circle cx="68.4601" cy="72.454" r="2.45399" fill="#860CFF"/>
<circle cx="68.454" cy="81.454" r="2.45399" fill="#860CFF"/>
<circle cx="68.454" cy="91.454" r="2.45399" fill="#860CFF"/>
<circle cx="68.454" cy="23.1227" r="2.45399" fill="#860CFF"/>
<circle cx="68.454" cy="13.454" r="2.45399" fill="#860CFF"/>
<circle cx="68.454" cy="33.454" r="2.45399" fill="#860CFF"/>
<circle cx="68.454" cy="42.454" r="2.45399" fill="#860CFF"/>
<rect x="57" y="11" width="4.90798" height="4.90798" rx="0.490798" fill="#860CFF"/>
<circle cx="50.0797" cy="33.454" r="2.45399" fill="#860CFF"/>
<circle cx="59.454" cy="99.454" r="2.45399" fill="#860CFF"/>
<circle cx="59.454" cy="109.454" r="2.45399" fill="#860CFF"/>
<circle cx="68.454" cy="99.454" r="2.45399" fill="#860CFF"/>
<circle cx="68.454" cy="109.454" r="2.45399" fill="#860CFF"/>
</svg>
