<svg width="109" height="123" viewBox="0 0 109 123" fill="none" xmlns="http://www.w3.org/2000/svg">
<circle cx="39.9717" cy="22.9439" r="1.56672" fill="#1E1E1E" fill-opacity="0.25"/>
<circle cx="30.5667" cy="22.9439" r="1.56672" fill="#1E1E1E" fill-opacity="0.25"/>
<circle cx="21.5667" cy="22.9439" r="1.56672" fill="#1E1E1E" fill-opacity="0.25"/>
<circle cx="21.5667" cy="12.5667" r="1.56672" fill="#1E1E1E" fill-opacity="0.25"/>
<circle cx="39.9717" cy="12.9439" r="1.56672" fill="#1E1E1E" fill-opacity="0.25"/>
<circle cx="39.972" cy="2.94391" r="1.56672" fill="#1E1E1E" fill-opacity="0.25"/>
<circle cx="30.5667" cy="12.9439" r="1.56672" fill="#1E1E1E" fill-opacity="0.25"/>
<circle cx="49.4857" cy="22.9439" r="1.56672" fill="#1E1E1E" fill-opacity="0.25"/>
<circle cx="49.4857" cy="12.9439" r="1.56672" fill="#1E1E1E" fill-opacity="0.25"/>
<circle cx="49.4857" cy="2.94391" r="1.56672" fill="#1E1E1E" fill-opacity="0.25"/>
<circle cx="58.9993" cy="22.9439" r="1.56672" fill="#1E1E1E" fill-opacity="0.25"/>
<circle cx="58.9993" cy="12.9439" r="1.56672" fill="#1E1E1E" fill-opacity="0.25"/>
<circle cx="58.9993" cy="2.94391" r="1.56672" fill="#1E1E1E" fill-opacity="0.25"/>
<circle cx="68.5133" cy="22.9439" r="1.56672" fill="#1E1E1E" fill-opacity="0.25"/>
<circle cx="68.5133" cy="12.9439" r="1.56672" fill="#1E1E1E" fill-opacity="0.25"/>
<circle cx="68.513" cy="2.94391" r="1.56672" fill="#1E1E1E" fill-opacity="0.25"/>
<circle cx="78.0269" cy="22.9439" r="1.56672" fill="#1E1E1E" fill-opacity="0.25"/>
<circle cx="87.5667" cy="22.9439" r="1.56672" fill="#1E1E1E" fill-opacity="0.25"/>
<circle cx="87.5667" cy="13.5667" r="1.56672" fill="#1E1E1E" fill-opacity="0.25"/>
<circle cx="96.5667" cy="22.9439" r="1.56672" fill="#1E1E1E" fill-opacity="0.25"/>
<circle cx="78.0269" cy="12.9439" r="1.56672" fill="#1E1E1E" fill-opacity="0.25"/>
<circle cx="30.4578" cy="32.4578" r="1.56672" fill="#1E1E1E" fill-opacity="0.25"/>
<circle cx="21.5667" cy="32.5667" r="1.56672" fill="#1E1E1E" fill-opacity="0.25"/>
<circle cx="11.5667" cy="32.5667" r="1.56672" fill="#1E1E1E" fill-opacity="0.25"/>
<circle cx="1.56672" cy="32.5667" r="1.56672" fill="#1E1E1E" fill-opacity="0.25"/>
<circle cx="39.9717" cy="32.4578" r="1.56672" fill="#1E1E1E" fill-opacity="0.25"/>
<circle cx="49.4857" cy="32.4578" r="1.56672" fill="#1E1E1E" fill-opacity="0.25"/>
<circle cx="58.9993" cy="32.4578" r="1.56672" fill="#1E1E1E" fill-opacity="0.25"/>
<circle cx="68.5133" cy="32.4578" r="1.56672" fill="#1E1E1E" fill-opacity="0.25"/>
<circle cx="78.0269" cy="32.4578" r="1.56672" fill="#1E1E1E" fill-opacity="0.25"/>
<circle cx="87.5406" cy="32.4578" r="1.56672" fill="#1E1E1E" fill-opacity="0.25"/>
<circle cx="96.5667" cy="32.4578" r="1.56672" fill="#1E1E1E" fill-opacity="0.25"/>
<circle cx="106.567" cy="32.4578" r="1.56672" fill="#1E1E1E" fill-opacity="0.25"/>
<circle cx="21.5667" cy="41.9715" r="1.56672" fill="#1E1E1E" fill-opacity="0.25"/>
<circle cx="11.5667" cy="41.9715" r="1.56672" fill="#1E1E1E" fill-opacity="0.25"/>
<circle cx="1.56672" cy="41.9715" r="1.56672" fill="#1E1E1E" fill-opacity="0.25"/>
<circle cx="30.4578" cy="41.9715" r="1.56672" fill="#1E1E1E" fill-opacity="0.25"/>
<circle cx="39.9717" cy="41.9715" r="1.56672" fill="#1E1E1E" fill-opacity="0.25"/>
<circle cx="49.4857" cy="41.9715" r="1.56672" fill="#1E1E1E" fill-opacity="0.25"/>
<circle cx="58.9993" cy="41.9715" r="1.56672" fill="#1E1E1E" fill-opacity="0.25"/>
<circle cx="68.5133" cy="41.9715" r="1.56672" fill="#1E1E1E" fill-opacity="0.25"/>
<circle cx="78.0269" cy="41.9715" r="1.56672" fill="#1E1E1E" fill-opacity="0.25"/>
<circle cx="87.5406" cy="41.9715" r="1.56672" fill="#1E1E1E" fill-opacity="0.25"/>
<circle cx="97.0545" cy="41.9715" r="1.56672" fill="#1E1E1E" fill-opacity="0.25"/>
<circle cx="107.055" cy="41.9715" r="1.56672" fill="#1E1E1E" fill-opacity="0.25"/>
<circle cx="21.5667" cy="51.4854" r="1.56672" fill="#1E1E1E" fill-opacity="0.25"/>
<circle cx="11.5667" cy="51.4852" r="1.56672" fill="#1E1E1E" fill-opacity="0.25"/>
<circle cx="1.56672" cy="51.4852" r="1.56672" fill="#1E1E1E" fill-opacity="0.25"/>
<circle cx="30.4578" cy="51.4854" r="1.56672" fill="#1E1E1E" fill-opacity="0.25"/>
<circle cx="39.9717" cy="51.4854" r="1.56672" fill="#1E1E1E" fill-opacity="0.25"/>
<circle cx="49.4857" cy="51.4854" r="1.56672" fill="#1E1E1E" fill-opacity="0.25"/>
<circle cx="58.9993" cy="51.4854" r="1.56672" fill="#1E1E1E" fill-opacity="0.25"/>
<circle cx="68.5133" cy="51.4854" r="1.56672" fill="#1E1E1E" fill-opacity="0.25"/>
<circle cx="78.0269" cy="51.4854" r="1.56672" fill="#1E1E1E" fill-opacity="0.25"/>
<circle cx="87.5406" cy="51.4854" r="1.56672" fill="#1E1E1E" fill-opacity="0.25"/>
<circle cx="97.0545" cy="51.4854" r="1.56672" fill="#1E1E1E" fill-opacity="0.25"/>
<circle cx="107.055" cy="51.4852" r="1.56672" fill="#1E1E1E" fill-opacity="0.25"/>
<circle cx="21.5667" cy="60.9991" r="1.56672" fill="#1E1E1E" fill-opacity="0.25"/>
<circle cx="11.5667" cy="60.9991" r="1.56672" fill="#1E1E1E" fill-opacity="0.25"/>
<circle cx="1.56672" cy="60.9991" r="1.56672" fill="#1E1E1E" fill-opacity="0.25"/>
<circle cx="30.4578" cy="60.9991" r="1.56672" fill="#1E1E1E" fill-opacity="0.25"/>
<circle cx="39.9717" cy="60.9991" r="1.56672" fill="#1E1E1E" fill-opacity="0.25"/>
<circle cx="49.4857" cy="60.9991" r="1.56672" fill="#1E1E1E" fill-opacity="0.25"/>
<circle cx="58.9993" cy="60.9991" r="1.56672" fill="#1E1E1E" fill-opacity="0.25"/>
<circle cx="68.5133" cy="60.9991" r="1.56672" fill="#1E1E1E" fill-opacity="0.25"/>
<circle cx="78.0269" cy="60.9991" r="1.56672" fill="#1E1E1E" fill-opacity="0.25"/>
<circle cx="87.5406" cy="60.9991" r="1.56672" fill="#1E1E1E" fill-opacity="0.25"/>
<circle cx="97.0545" cy="60.9991" r="1.56672" fill="#1E1E1E" fill-opacity="0.25"/>
<circle cx="107.055" cy="60.9991" r="1.56672" fill="#1E1E1E" fill-opacity="0.25"/>
<circle cx="21.5667" cy="70.513" r="1.56672" fill="#1E1E1E" fill-opacity="0.25"/>
<circle cx="11.5667" cy="70.513" r="1.56672" fill="#1E1E1E" fill-opacity="0.25"/>
<circle cx="1.56672" cy="70.513" r="1.56672" fill="#1E1E1E" fill-opacity="0.25"/>
<circle cx="30.4578" cy="70.513" r="1.56672" fill="#1E1E1E" fill-opacity="0.25"/>
<circle cx="39.9717" cy="70.513" r="1.56672" fill="#1E1E1E" fill-opacity="0.25"/>
<circle cx="49.4857" cy="70.513" r="1.56672" fill="#1E1E1E" fill-opacity="0.25"/>
<circle cx="58.9993" cy="70.513" r="1.56672" fill="#1E1E1E" fill-opacity="0.25"/>
<circle cx="68.5133" cy="70.513" r="1.56672" fill="#1E1E1E" fill-opacity="0.25"/>
<circle cx="78.0269" cy="70.513" r="1.56672" fill="#1E1E1E" fill-opacity="0.25"/>
<circle cx="87.5406" cy="70.513" r="1.56672" fill="#1E1E1E" fill-opacity="0.25"/>
<circle cx="97.0545" cy="70.513" r="1.56672" fill="#1E1E1E" fill-opacity="0.25"/>
<circle cx="107.055" cy="70.513" r="1.56672" fill="#1E1E1E" fill-opacity="0.25"/>
<circle cx="21.5667" cy="80.0267" r="1.56672" fill="#1E1E1E" fill-opacity="0.25"/>
<circle cx="11.5667" cy="80.0267" r="1.56672" fill="#1E1E1E" fill-opacity="0.25"/>
<circle cx="1.56672" cy="80.0267" r="1.56672" fill="#1E1E1E" fill-opacity="0.25"/>
<circle cx="30.4578" cy="80.0267" r="1.56672" fill="#1E1E1E" fill-opacity="0.25"/>
<circle cx="39.9717" cy="80.0267" r="1.56672" fill="#1E1E1E" fill-opacity="0.25"/>
<circle cx="49.4857" cy="80.0267" r="1.56672" fill="#1E1E1E" fill-opacity="0.25"/>
<circle cx="58.9993" cy="80.0267" r="1.56672" fill="#1E1E1E" fill-opacity="0.25"/>
<circle cx="68.5133" cy="80.0267" r="1.56672" fill="#1E1E1E" fill-opacity="0.25"/>
<circle cx="78.0269" cy="80.0267" r="1.56672" fill="#1E1E1E" fill-opacity="0.25"/>
<circle cx="87.5406" cy="80.0267" r="1.56672" fill="#1E1E1E" fill-opacity="0.25"/>
<circle cx="97.0545" cy="80.0267" r="1.56672" fill="#1E1E1E" fill-opacity="0.25"/>
<circle cx="107.055" cy="80.0267" r="1.56672" fill="#1E1E1E" fill-opacity="0.25"/>
<circle cx="30.4578" cy="89.5404" r="1.56672" fill="#1E1E1E" fill-opacity="0.25"/>
<circle cx="21.5667" cy="89.5404" r="1.56672" fill="#1E1E1E" fill-opacity="0.25"/>
<circle cx="21.5667" cy="99.5667" r="1.56672" fill="#1E1E1E" fill-opacity="0.25"/>
<circle cx="21.5667" cy="108.567" r="1.56672" fill="#1E1E1E" fill-opacity="0.25"/>
<circle cx="11.5667" cy="89.5404" r="1.56672" fill="#1E1E1E" fill-opacity="0.25"/>
<circle cx="1.56672" cy="89.5404" r="1.56672" fill="#1E1E1E" fill-opacity="0.25"/>
<circle cx="39.9717" cy="89.5406" r="1.56672" fill="#1E1E1E" fill-opacity="0.25"/>
<circle cx="49.4857" cy="89.5406" r="1.56672" fill="#1E1E1E" fill-opacity="0.25"/>
<circle cx="58.9993" cy="89.5406" r="1.56672" fill="#1E1E1E" fill-opacity="0.25"/>
<circle cx="68.5133" cy="89.5406" r="1.56672" fill="#1E1E1E" fill-opacity="0.25"/>
<circle cx="78.0269" cy="89.5406" r="1.56672" fill="#1E1E1E" fill-opacity="0.25"/>
<circle cx="87.5406" cy="89.5404" r="1.56672" fill="#1E1E1E" fill-opacity="0.25"/>
<circle cx="96.5667" cy="89.5404" r="1.56672" fill="#1E1E1E" fill-opacity="0.25"/>
<circle cx="106.567" cy="89.5404" r="1.56672" fill="#1E1E1E" fill-opacity="0.25"/>
<circle cx="39.9717" cy="99.0543" r="1.56672" fill="#1E1E1E" fill-opacity="0.25"/>
<circle cx="30.5667" cy="99.0543" r="1.56672" fill="#1E1E1E" fill-opacity="0.25"/>
<circle cx="39.9717" cy="109.054" r="1.56672" fill="#1E1E1E" fill-opacity="0.25"/>
<circle cx="39.972" cy="120.054" r="1.56672" fill="#1E1E1E" fill-opacity="0.25"/>
<circle cx="30.5667" cy="109.054" r="1.56672" fill="#1E1E1E" fill-opacity="0.25"/>
<circle cx="49.4857" cy="99.0543" r="1.56672" fill="#1E1E1E" fill-opacity="0.25"/>
<circle cx="49.4857" cy="109.054" r="1.56672" fill="#1E1E1E" fill-opacity="0.25"/>
<circle cx="49.4857" cy="120.054" r="1.56672" fill="#1E1E1E" fill-opacity="0.25"/>
<circle cx="58.9993" cy="99.0543" r="1.56672" fill="#1E1E1E" fill-opacity="0.25"/>
<circle cx="58.9993" cy="109.054" r="1.56672" fill="#1E1E1E" fill-opacity="0.25"/>
<circle cx="58.9993" cy="120.054" r="1.56672" fill="#1E1E1E" fill-opacity="0.25"/>
<circle cx="68.5133" cy="99.0543" r="1.56672" fill="#1E1E1E" fill-opacity="0.25"/>
<circle cx="68.5133" cy="109.054" r="1.56672" fill="#1E1E1E" fill-opacity="0.25"/>
<circle cx="68.513" cy="120.054" r="1.56672" fill="#1E1E1E" fill-opacity="0.25"/>
<circle cx="78.0269" cy="99.0543" r="1.56672" fill="#1E1E1E" fill-opacity="0.25"/>
<circle cx="87.5667" cy="99.0543" r="1.56672" fill="#1E1E1E" fill-opacity="0.25"/>
<circle cx="87.5667" cy="108.567" r="1.56672" fill="#1E1E1E" fill-opacity="0.25"/>
<circle cx="96.5667" cy="99.0543" r="1.56672" fill="#1E1E1E" fill-opacity="0.25"/>
<circle cx="78.0269" cy="109.054" r="1.56672" fill="#1E1E1E" fill-opacity="0.25"/>
<circle cx="11.5667" cy="99.5667" r="1.56672" fill="#1E1E1E" fill-opacity="0.25"/>
<circle cx="11.5667" cy="22.9442" r="1.56672" fill="#1E1E1E" fill-opacity="0.25"/>
<rect x="36" y="20" width="4.90798" height="4.90798" rx="0.490798" fill="#860CFF"/>
<rect x="86" y="30" width="4.90798" height="4.90798" rx="0.490798" fill="#860CFF"/>
<circle cx="28.454" cy="32.454" r="2.45399" fill="#860CFF"/>
<circle cx="48.454" cy="22.454" r="2.45399" fill="#860CFF"/>
<circle cx="48.454" cy="13.454" r="2.45399" fill="#860CFF"/>
<circle cx="38.454" cy="13.454" r="2.45399" fill="#860CFF"/>
<circle cx="28.454" cy="22.454" r="2.45399" fill="#860CFF"/>
<circle cx="19.454" cy="32.454" r="2.45399" fill="#860CFF"/>
<circle cx="58.454" cy="22.454" r="2.45399" fill="#860CFF"/>
<circle cx="58.454" cy="13.454" r="2.45399" fill="#860CFF"/>
<circle cx="68.454" cy="22.454" r="2.45399" fill="#860CFF"/>
<circle cx="68.454" cy="13.454" r="2.45399" fill="#860CFF"/>
<circle cx="78.454" cy="32.454" r="2.45399" fill="#860CFF"/>
<circle cx="78.454" cy="22.454" r="2.45399" fill="#860CFF"/>
<rect width="4.90798" height="4.90798" rx="0.490798" transform="matrix(1 0 0 -1 36 101.908)" fill="#860CFF"/>
<rect width="4.90798" height="4.90798" rx="0.490798" transform="matrix(1 0 0 -1 86 91.908)" fill="#860CFF"/>
<circle cx="2.45399" cy="2.45399" r="2.45399" transform="matrix(1 0 0 -1 26 91.908)" fill="#860CFF"/>
<circle cx="2.45399" cy="2.45399" r="2.45399" transform="matrix(1 0 0 -1 46 101.908)" fill="#860CFF"/>
<circle cx="2.45399" cy="2.45399" r="2.45399" transform="matrix(1 0 0 -1 46 110.908)" fill="#860CFF"/>
<circle cx="2.45399" cy="2.45399" r="2.45399" transform="matrix(1 0 0 -1 36 110.908)" fill="#860CFF"/>
<circle cx="2.45399" cy="2.45399" r="2.45399" transform="matrix(1 0 0 -1 26 101.908)" fill="#860CFF"/>
<circle cx="2.45399" cy="2.45399" r="2.45399" transform="matrix(1 0 0 -1 17 91.908)" fill="#860CFF"/>
<circle cx="2.45399" cy="2.45399" r="2.45399" transform="matrix(1 0 0 -1 56 101.908)" fill="#860CFF"/>
<circle cx="2.45399" cy="2.45399" r="2.45399" transform="matrix(1 0 0 -1 56 110.908)" fill="#860CFF"/>
<circle cx="2.45399" cy="2.45399" r="2.45399" transform="matrix(1 0 0 -1 66 101.908)" fill="#860CFF"/>
<circle cx="2.45399" cy="2.45399" r="2.45399" transform="matrix(1 0 0 -1 66 110.908)" fill="#860CFF"/>
<circle cx="2.45399" cy="2.45399" r="2.45399" transform="matrix(1 0 0 -1 76 91.908)" fill="#860CFF"/>
<circle cx="2.45399" cy="2.45399" r="2.45399" transform="matrix(1 0 0 -1 76 101.908)" fill="#860CFF"/>
<circle cx="2.45399" cy="2.45399" r="2.45399" transform="matrix(1 0 0 -1 76 81.908)" fill="#860CFF"/>
<circle cx="2.45399" cy="2.45399" r="2.45399" transform="matrix(1 0 0 -1 76 71.908)" fill="#860CFF"/>
<circle cx="2.45399" cy="2.45399" r="2.45399" transform="matrix(1 0 0 -1 66 71.908)" fill="#860CFF"/>
<circle cx="2.45399" cy="2.45399" r="2.45399" transform="matrix(1 0 0 -1 56 71.908)" fill="#860CFF"/>
<circle cx="2.45399" cy="2.45399" r="2.45399" transform="matrix(1 0 0 -1 46 71.908)" fill="#860CFF"/>
<circle cx="2.45399" cy="2.45399" r="2.45399" transform="matrix(1 0 0 -1 36 71.908)" fill="#860CFF"/>
<circle cx="2.45399" cy="2.45399" r="2.45399" transform="matrix(1 0 0 -1 76 61.908)" fill="#860CFF"/>
<circle cx="2.45399" cy="2.45399" r="2.45399" transform="matrix(1 0 0 -1 66 61.908)" fill="#860CFF"/>
<circle cx="2.45399" cy="2.45399" r="2.45399" transform="matrix(1 0 0 -1 56 61.908)" fill="#860CFF"/>
<circle cx="2.45399" cy="2.45399" r="2.45399" transform="matrix(1 0 0 -1 46 61.908)" fill="#860CFF"/>
<circle cx="2.45399" cy="2.45399" r="2.45399" transform="matrix(1 0 0 -1 36 61.908)" fill="#860CFF"/>
<circle cx="2.45399" cy="2.45399" r="2.45399" transform="matrix(1 0 0 -1 76 51.908)" fill="#860CFF"/>
<circle cx="2.45399" cy="2.45399" r="2.45399" transform="matrix(1 0 0 -1 76 42.908)" fill="#860CFF"/>
<circle cx="2.45399" cy="2.45399" r="2.45399" transform="matrix(1 0 0 -1 86 81.908)" fill="#860CFF"/>
<circle cx="2.45399" cy="2.45399" r="2.45399" transform="matrix(1 0 0 -1 86 51.908)" fill="#860CFF"/>
<circle cx="2.45399" cy="2.45399" r="2.45399" transform="matrix(1 0 0 -1 86 42.908)" fill="#860CFF"/>
</svg>
